<svg width="36" height="35" viewBox="0 0 36 35" fill="none" xmlns="http://www.w3.org/2000/svg">
<path d="M34 17.8616C34 26.6217 26.8366 33.7232 18 33.7232C9.16344 33.7232 2 26.6217 2 17.8616C2 9.10148 9.16344 2 18 2C21.9746 2 26.9488 3.63748 29.7468 6.0156C30.557 6.61793 28.4714 7.86299 26.1013 6.81871C24.2785 6.0156 23.8734 7.82261 24.481 8.82651C24.8978 9.51518 24.481 11.0351 22.6582 11.2359C20.8354 11.4366 20.4304 9.22807 19.2152 10.6335C18 12.039 21.6456 12.2398 20.4304 15.0507C19.2152 17.8616 16.9873 16.6569 15.3671 16.2554C13.7468 15.8538 11.519 15.2515 10.1013 17.8616C8.68354 20.4717 7.26582 28.7037 12.1266 32.3177" stroke="#375BB1" stroke-width="2.49248"/>
<path d="M33.5948 18.2636C32.4471 20.5391 28.7745 25.0499 23.2657 24.8893C16.3796 24.6885 12.9365 17.2597 13.3416 15.4526" stroke="#375BB1" stroke-width="2.49248"/>
</svg>
