<svg width="49" height="48" viewBox="0 0 49 48" fill="none" xmlns="http://www.w3.org/2000/svg">
<path d="M24.5 30C27.8137 30 30.5 27.3137 30.5 24C30.5 20.6863 27.8137 18 24.5 18C21.1863 18 18.5 20.6863 18.5 24C18.5 27.3137 21.1863 30 24.5 30Z" stroke="black" stroke-opacity="0.8" stroke-width="2" stroke-linecap="round" stroke-linejoin="round"/>
<path d="M39.3 30C39.0338 30.6032 38.9544 31.2724 39.072 31.9212C39.1896 32.57 39.4989 33.1686 39.96 33.64L40.08 33.76C40.4519 34.1315 40.7469 34.5726 40.9482 35.0582C41.1495 35.5438 41.2531 36.0643 41.2531 36.59C41.2531 37.1157 41.1495 37.6362 40.9482 38.1218C40.7469 38.6074 40.4519 39.0485 40.08 39.42C39.7085 39.7919 39.2674 40.0869 38.7818 40.2882C38.2962 40.4895 37.7757 40.5931 37.25 40.5931C36.7243 40.5931 36.2038 40.4895 35.7182 40.2882C35.2326 40.0869 34.7915 39.7919 34.42 39.42L34.3 39.3C33.8286 38.8389 33.23 38.5296 32.5812 38.412C31.9324 38.2944 31.2632 38.3738 30.66 38.64C30.0685 38.8935 29.564 39.3145 29.2086 39.8511C28.8533 40.3877 28.6626 41.0164 28.66 41.66V42C28.66 43.0609 28.2386 44.0783 27.4884 44.8284C26.7383 45.5786 25.7209 46 24.66 46C23.5991 46 22.5817 45.5786 21.8316 44.8284C21.0814 44.0783 20.66 43.0609 20.66 42V41.82C20.6445 41.158 20.4302 40.516 20.045 39.9774C19.6598 39.4388 19.1215 39.0286 18.5 38.8C17.8968 38.5338 17.2276 38.4544 16.5788 38.572C15.93 38.6896 15.3314 38.9989 14.86 39.46L14.74 39.58C14.3685 39.9519 13.9274 40.2469 13.4418 40.4482C12.9562 40.6495 12.4357 40.7531 11.91 40.7531C11.3843 40.7531 10.8638 40.6495 10.3782 40.4482C9.89265 40.2469 9.45149 39.9519 9.08 39.58C8.70809 39.2085 8.41306 38.7674 8.21176 38.2818C8.01046 37.7962 7.90685 37.2757 7.90685 36.75C7.90685 36.2243 8.01046 35.7038 8.21176 35.2182C8.41306 34.7326 8.70809 34.2915 9.08 33.92L9.2 33.8C9.66107 33.3286 9.97037 32.73 10.088 32.0812C10.2056 31.4324 10.1262 30.7632 9.86 30.16C9.60647 29.5685 9.18551 29.064 8.64893 28.7086C8.11235 28.3533 7.48357 28.1626 6.84 28.16H6.5C5.43913 28.16 4.42172 27.7386 3.67157 26.9884C2.92143 26.2383 2.5 25.2209 2.5 24.16C2.5 23.0991 2.92143 22.0817 3.67157 21.3316C4.42172 20.5814 5.43913 20.16 6.5 20.16H6.68C7.34199 20.1445 7.98401 19.9302 8.5226 19.545C9.06119 19.1598 9.47143 18.6215 9.7 18C9.96623 17.3968 10.0456 16.7276 9.92801 16.0788C9.81037 15.43 9.50107 14.8314 9.04 14.36L8.92 14.24C8.54809 13.8685 8.25306 13.4274 8.05176 12.9418C7.85046 12.4562 7.74685 11.9357 7.74685 11.41C7.74685 10.8843 7.85046 10.3638 8.05176 9.87824C8.25306 9.39265 8.54809 8.95149 8.92 8.58C9.29149 8.20809 9.73265 7.91306 10.2182 7.71176C10.7038 7.51046 11.2243 7.40685 11.75 7.40685C12.2757 7.40685 12.7962 7.51046 13.2818 7.71176C13.7674 7.91306 14.2085 8.20809 14.58 8.58L14.7 8.7C15.1714 9.16107 15.77 9.47037 16.4188 9.58801C17.0676 9.70565 17.7368 9.62623 18.34 9.36H18.5C19.0915 9.10647 19.596 8.68551 19.9514 8.14893C20.3067 7.61235 20.4974 6.98357 20.5 6.34V6C20.5 4.93913 20.9214 3.92172 21.6716 3.17157C22.4217 2.42143 23.4391 2 24.5 2C25.5609 2 26.5783 2.42143 27.3284 3.17157C28.0786 3.92172 28.5 4.93913 28.5 6V6.18C28.5026 6.82357 28.6933 7.45235 29.0486 7.98893C29.404 8.52551 29.9085 8.94647 30.5 9.2C31.1032 9.46623 31.7724 9.54565 32.4212 9.42801C33.07 9.31037 33.6686 9.00107 34.14 8.54L34.26 8.42C34.6315 8.04809 35.0726 7.75306 35.5582 7.55176C36.0438 7.35046 36.5643 7.24685 37.09 7.24685C37.6157 7.24685 38.1362 7.35046 38.6218 7.55176C39.1074 7.75306 39.5485 8.04809 39.92 8.42C40.2919 8.79149 40.5869 9.23265 40.7882 9.71824C40.9895 10.2038 41.0931 10.7243 41.0931 11.25C41.0931 11.7757 40.9895 12.2962 40.7882 12.7818C40.5869 13.2674 40.2919 13.7085 39.92 14.08L39.8 14.2C39.3389 14.6714 39.0296 15.27 38.912 15.9188C38.7944 16.5676 38.8738 17.2368 39.14 17.84V18C39.3935 18.5915 39.8145 19.096 40.3511 19.4514C40.8877 19.8067 41.5164 19.9974 42.16 20H42.5C43.5609 20 44.5783 20.4214 45.3284 21.1716C46.0786 21.9217 46.5 22.9391 46.5 24C46.5 25.0609 46.0786 26.0783 45.3284 26.8284C44.5783 27.5786 43.5609 28 42.5 28H42.32C41.6764 28.0026 41.0477 28.1933 40.5111 28.5486C39.9745 28.904 39.5535 29.4085 39.3 30V30Z" stroke="black" stroke-opacity="0.8" stroke-width="2" stroke-linecap="round" stroke-linejoin="round"/>
</svg>
