<svg width="620" height="541" viewBox="0 0 620 541" fill="none" xmlns="http://www.w3.org/2000/svg">
<path d="M67.769 300.762C94.6524 268.209 174.94 245.065 197.482 190.721C220.024 136.377 310.97 -33.9389 454.665 29.3024C545.093 69.1018 586.601 221.979 612.02 305.515C612.02 305.515 672.739 480.455 545.741 518.506C512.087 528.588 472.134 540.348 422.294 540.789C255.266 542.259 -72.1878 470.217 67.769 300.762Z" fill="#EBF5FF"/>
<path d="M319.627 148.856C319.627 148.856 298.354 164.734 280.497 154.852C262.639 144.97 283.685 150.688 289.659 146.22C295.633 141.752 291.052 137.867 287.015 137.549C282.979 137.232 260.093 134.13 262.231 125.498C264.369 116.866 276.454 131.579 279.596 124.592C282.745 117.604 282 124.21 267.927 116.089C256.38 109.426 255.933 94.5251 258.888 92.8609C264.117 89.908 270.447 101.979 274.004 99.8352C277.555 97.6852 262.49 85.8218 266.968 75.1564C271.445 64.491 276.246 58.9479 276.246 58.9479C276.246 58.9479 279.117 63.034 288.007 69.16C296.896 75.286 304.251 79.5858 301.264 90.1864C298.283 100.781 308.333 95.7749 307.115 83.3482C305.896 70.9214 312.512 70.3386 314.825 80.4147C316.957 89.6813 318.629 101.331 319.717 104.783C320.812 108.234 320.411 108.364 321.415 99.5567C322.419 90.7498 329.417 88.2308 332.663 91.7082C335.909 95.1856 330.149 120.888 321.104 123.698C312.058 126.502 319.257 140.735 328.899 126.379C338.54 112.022 340.886 109.983 341.657 120.855C342.428 131.728 329.21 143.468 319.627 148.856Z" fill="url(#paint0_linear_56_365)"/>
<path d="M308.657 139.421C298.581 133.69 276.466 124.074 268.523 133.23C268.322 133.463 282.693 141.733 285.162 141.927C289.199 142.244 287.961 144.025 281.987 148.493C276.013 152.961 268.011 139.317 285.868 149.199C298.069 155.953 310.574 152.761 318.091 148.739C315.551 145.398 312.33 141.512 308.657 139.421Z" fill="#4F7ACE"/>
<path d="M355.892 192.709C346.38 186.667 346.141 190.695 349.283 184.886C350.644 182.374 353.106 183.339 355.776 185.035L362.436 178.217C357 175.549 344.475 170.575 342.635 170.077C338.605 168.982 334.251 164.087 340.516 160.603C344.022 158.66 352.043 160.901 355.426 160.875L355.38 157.831C354.305 156.75 352.639 155.312 350.236 153.415C332.935 139.79 310.62 152.152 310.62 152.152C300.68 155.895 286.691 165.524 286.801 176.908C286.912 188.293 289.38 186.641 299.935 173.625C310.49 160.616 316.834 176.708 307.588 177.88C298.341 179.058 290.987 204.534 294.033 208.749C297.071 212.965 304.251 211.696 305.799 202.779C307.348 193.862 315.272 192.858 316.153 196.633C317.035 200.409 308.112 211.469 305.793 221.688C303.473 231.906 319.614 235.351 319.153 222.27C318.693 209.183 334.205 198.226 330.564 208.613C326.922 219 326.469 230.19 335.009 238.226C343.549 246.263 348.616 253.392 348.616 253.392C348.616 253.392 361.886 245.337 360.804 229.646L355.892 192.709Z" fill="#5D93D4"/>
<path d="M273.771 145.165C275.67 151.239 269.974 150.695 266.799 149.478C263.624 148.26 249.719 147.477 245.268 153.467C239.948 160.609 260.566 162.39 258.544 166.541C256.16 171.417 254.43 173.107 244.341 169.261C231.201 164.249 219.071 174.836 222.026 178.754C224.981 182.672 240.395 182.924 241.814 186.097C243.233 189.27 232.976 188.701 227.728 198.628C221.767 209.902 224.592 222.536 224.767 224.116C226.309 224.524 238.529 229.271 250.549 225.003C261.136 221.247 265.335 213.438 268.27 215.296C271.205 217.155 265.95 230.022 269.397 233.512C272.851 236.996 285.084 226.531 282.019 212.816C279.667 202.287 281.171 197.566 286.341 195.914C290.741 194.509 289.685 211.871 298.354 209.798C307.017 207.72 303.363 189.847 302.618 186.538C301.873 183.222 302.832 178.961 308.572 181.72C314.313 184.478 310.821 206.055 321.091 190.151C325.529 183.28 324.168 169.461 316.225 155.636C313.451 150.812 309.447 146.816 304.607 144.064C294.531 138.333 275.935 128.632 269.261 132.757C258.454 139.434 271.873 139.091 273.771 145.165Z" fill="#95C1F5"/>
<path d="M225.991 224.971C225.894 224.971 225.797 224.938 225.713 224.88C225.505 224.725 225.46 224.433 225.616 224.226C226.076 223.604 271.788 162.183 309.493 147.231C309.732 147.14 310.004 147.25 310.095 147.49C310.192 147.729 310.076 148.001 309.836 148.092C272.378 162.947 226.821 224.155 226.361 224.777C226.277 224.906 226.14 224.971 225.991 224.971Z" fill="white"/>
<path d="M305.65 232.729C305.469 235.008 303.894 236.873 301.776 237.514C302.307 238.11 302.307 238.11 302.307 238.11C290.689 242.746 289.225 244.864 284.469 245.253C279.849 245.628 276.233 244.883 274.665 244.475C270.084 243.524 263.43 240.014 263.43 240.014C263.67 239.185 264.136 238.609 264.752 238.239C262.121 237.106 260.048 236.012 260.048 236.012C260.449 234.62 261.48 233.953 262.814 233.758C259.296 232.269 256.672 230.682 256.672 229.238C256.685 223.514 271.037 230.98 271.037 230.98C271.037 230.98 285.467 230.928 285.622 230.52C285.687 230.346 287.009 229.892 287.002 228.908C286.989 227.257 286.231 227.153 284.56 226.868L278.592 226.674C278.592 226.674 270.428 226.661 271.406 223.579C272.287 220.807 279 222.413 279 222.413L291.583 221.403L299.722 223.805C303.506 224.925 305.987 228.539 305.67 232.47L305.65 232.729Z" fill="#F5A086"/>
<path d="M67.7687 300.762C140.287 209.649 591.693 430.832 591.693 430.832C591.693 430.832 581.708 497.525 418.121 511.745C251.715 526.205 -69.0974 472.723 67.7687 300.762Z" fill="#C9DFF2"/>
<path d="M72.1035 443.446C72.1035 443.446 118.445 362.436 276.032 406.05C382.795 435.598 451.477 459.901 485.929 479.263C498.836 486.516 494.728 506.079 480 507.646C398.864 516.298 184.859 529.314 72.1035 443.446Z" fill="#A8C8E3"/>
<path d="M291.194 428.423C404.458 428.423 496.276 387.416 496.276 336.831C496.276 286.247 404.458 245.24 291.194 245.24C177.931 245.24 86.1123 286.247 86.1123 336.831C86.1123 387.416 177.931 428.423 291.194 428.423Z" fill="#95C1F5"/>
<path d="M431.812 137.886C431.812 137.886 501.894 149.452 498.661 201.633C495.428 253.82 483.013 332.739 483.013 332.739L370.024 294.357L378.713 129.558L431.812 137.886Z" fill="#95C1F5"/>
<path d="M368.508 260.69L348.376 297.297L425.346 325.214C425.346 325.214 457.782 303.754 437.864 263.734L407.819 268.934L368.508 260.69Z" fill="#2F4C9C"/>
<path d="M422.436 87.3889C422.436 87.3889 449.21 89.5065 448.614 119.774C448.218 139.939 484.367 150.669 479.177 167.59C473.987 184.511 495.726 204.028 470.741 210.316C445.763 216.604 419.851 200.266 414.156 170.497C408.454 140.729 402.486 122.37 406.277 106.738L422.436 87.3889Z" fill="#5370BD"/>
<path d="M385.588 153.195L464.572 211.754C470.793 176.041 432.175 164.682 432.991 128.755L422.385 111.329L389.56 103.442L379.704 140.833C378.382 145.832 380.871 151.058 385.588 153.195Z" fill="#344982"/>
<path d="M379.289 138.922C379.289 138.922 363.337 132.511 370.134 117.475C374.359 108.13 397.523 103.481 397.523 103.481L379.289 138.922Z" fill="#344982"/>
<path d="M377.184 120.544C377.184 120.544 362.242 156.517 380.171 155.714L385.886 156.18C385.886 156.18 383.456 143.98 386.896 119.774L377.184 120.544Z" fill="#5169A8"/>
<path d="M334.717 247.357C330.823 247.357 326.423 246.593 321.369 245.116L293.708 237.255C289.523 236.064 287.093 231.705 288.278 227.522C289.471 223.339 293.831 223.494 298.017 224.686L325.743 229.983C331.587 231.692 335.818 230.585 337.866 229.685C339.674 228.888 341.145 227.788 343.412 223.015L369.713 167.519C371.579 163.588 376.276 161.911 380.216 163.769C384.149 165.634 385.834 170.329 383.967 174.266L357.667 229.763C351.92 241.853 345.149 247.357 334.717 247.357Z" fill="#F5A086"/>
<path d="M336.35 224.79C340.121 230.054 346.594 239.599 359.656 236.841C359.656 236.841 392.734 179.648 388.464 161.341C384.194 143.034 368.916 154.017 364.153 164.436C360.389 172.68 354.33 193.557 350.294 199.968C348.246 203.213 342.369 215.452 340.672 217.161C338.916 218.929 334.898 222.763 336.35 224.79Z" fill="#95C1F5"/>
<path d="M349.762 236.51C352.555 237.398 355.821 237.65 359.656 236.841C359.656 236.841 379.885 201.872 386.663 177.867C387.842 173.684 370.535 196.763 359.008 215.206C356.138 219.797 358.808 223.054 357.032 226.577C354.505 231.57 348.278 236.038 349.762 236.51Z" fill="#5A97DB"/>
<path d="M372.512 169.371L372.81 219.751C372.81 219.751 374.384 254.694 375.589 260.419C375.589 260.419 389.598 288.024 431.423 263.967L451.425 196.873L372.512 169.371Z" fill="#A3BDFF"/>
<path d="M375.233 227.878L364.095 206.807C364.095 206.807 374.385 245.447 375.59 251.178C375.59 251.178 389.598 278.783 431.424 254.726L426.46 243.038L375.233 227.878Z" fill="#5A97DB"/>
<path d="M452.132 206.327C453.926 205.272 454.957 206.03 454.957 206.03C455.456 195.39 459.881 181.066 450.453 172.738C447.661 170.271 413.475 155.461 393.123 151.634C383.255 149.782 377.307 147.781 374.021 156.329C372.104 161.328 367.328 178.223 367.328 178.23C367.84 197.792 375.052 172.252 377.313 183.093C377.242 182.827 377.151 182.562 377.093 182.303C377.093 182.303 380.954 200.616 383.903 214.791C385.73 223.637 387.039 230.035 387.188 230.928C387.194 230.967 387.201 231.026 387.201 231.038L431.948 239.897L440.002 226.68L452.132 206.327Z" fill="#95C1F5"/>
<path d="M399.842 153.499C399.842 153.499 385.652 168.147 397.957 178.527C410.261 188.908 432.454 164.171 432.454 164.171C421.451 157.281 409.646 154.146 399.842 153.499Z" fill="#FFB49E"/>
<path d="M404.371 183.565C402.991 183.565 401.624 183.371 400.289 182.944C394.056 180.943 390.253 177.588 388.989 172.965C386.326 163.225 396.382 151.77 396.81 151.291C397.536 150.475 398.78 150.404 399.596 151.129C400.406 151.854 400.484 153.097 399.758 153.907C399.667 154.011 390.687 164.255 392.793 171.929C393.687 175.179 396.616 177.621 401.495 179.188C411.305 182.335 425.67 167.538 430.38 161.574C431.054 160.719 432.292 160.57 433.147 161.244C434.002 161.917 434.151 163.154 433.477 164.009C432.79 164.89 417.894 183.565 404.371 183.565Z" fill="#2C4482"/>
<path d="M405.324 158.848L398.106 122.04L420.382 129.021L427.393 161.684C427.387 161.684 411.007 177.614 405.324 158.848Z" fill="#FFB49E"/>
<path d="M416.73 138.666C430.713 135.367 439.371 121.363 436.07 107.389C432.768 93.4143 418.756 84.7608 404.774 88.0605C390.791 91.3603 382.132 105.364 385.434 119.338C388.736 133.313 402.747 141.966 416.73 138.666Z" fill="#FFB49E"/>
<path d="M384.758 112.676C384.758 112.676 385.387 123.193 384.104 133.871C383.449 139.311 383.935 152.651 396.603 155.804C398.119 156.18 399.778 156.303 401.579 156.115C419.158 154.257 426.557 138.495 424.899 120.926C423.233 103.352 384.758 112.676 384.758 112.676Z" fill="#FFB49E"/>
<path d="M399.81 155.804C387.149 152.651 386.663 139.311 387.311 133.871C388.594 123.193 387.966 112.676 387.966 112.676C387.966 112.676 396.991 110.488 406.484 110.229C395.838 109.918 384.467 112.676 384.467 112.676C384.467 112.676 385.095 123.193 383.812 133.871C383.158 139.311 383.644 152.651 396.311 155.804C397.827 156.18 399.486 156.303 401.287 156.115C401.346 156.109 401.398 156.096 401.456 156.096C400.892 156.024 400.341 155.94 399.81 155.804Z" fill="#FFCCBD"/>
<path d="M475.354 170.09C482.255 147.606 439.736 144.971 441.421 111.828C442.419 92.1745 430.691 94.3697 426.894 88.3798C434.482 90.4908 449.054 97.4586 448.613 119.884C448.218 140.049 484.367 150.779 479.177 167.7C474.408 183.235 492.337 200.959 475.976 208.626C474.104 197.89 471.693 182.024 475.354 170.09Z" fill="#3D5CAD"/>
<path d="M364.095 216.047C364.095 216.047 353.76 195.992 377.838 181.435L366.862 219.978L364.095 216.047Z" fill="#B3D1F5"/>
<path d="M382.198 173.502C382.198 173.502 363.609 187.911 364.095 206.806C364.581 225.696 376.328 229.672 376.328 229.672L382.198 173.502Z" fill="#95C1F5"/>
<path d="M414.564 207.221C386.158 207.914 375.317 191.783 375.317 191.783C375.317 191.783 380.229 205.201 393.726 207.24C407.222 209.287 414.564 207.221 414.564 207.221Z" fill="#5A97DB"/>
<path d="M427.594 201.633C425.287 205.596 425.494 221.241 422.456 227.878C419.805 233.674 419.015 238.337 412.691 237.546C405.661 236.666 396.9 229.925 386.488 227.425C369.985 223.455 370.49 224.097 364.088 216.047C364.088 216.047 363.389 230.456 379.639 232.081C396.635 233.784 405.803 244.56 426.447 243.031L420.674 267.652C426.065 266.188 426.123 267.043 431.41 263.961L458.229 206.489C440.954 193.467 427.594 201.633 427.594 201.633Z" fill="#5A97DB"/>
<path d="M369.791 258.851L368.871 251.91L373.082 250.096L370.575 246.476L374.566 240.331L379.484 254.61L369.791 258.851Z" fill="#7090E0"/>
<path d="M368.508 260.691C368.125 262.212 368.637 263.799 369.829 264.835C374.145 268.558 385.795 276.647 404.929 275.733C421.309 274.95 431.048 271.997 435.765 270.087C437.799 269.264 438.875 267.076 438.246 265.01L437.857 263.741C437.158 261.461 434.676 260.205 432.389 260.995C423.57 264.051 402.635 270.158 388.516 265.081C382.004 262.737 377.864 260.412 375.233 258.392C372.803 256.52 369.24 257.751 368.508 260.691Z" fill="#213696"/>
<path d="M453.615 434.076C443.929 428.293 433.983 422.821 423.466 418.489C410.689 413.218 394.522 409.462 382.859 418.923C373.561 426.461 372.434 437.942 372.771 448.232C373.309 464.984 373.121 497.104 373.315 513.869L410.17 512.865C410.093 505.872 409.568 484.554 409.62 477.573C409.684 468.831 410.034 460.063 409.581 451.321C410.306 452.066 411.032 452.823 411.609 453.108C425.734 460.115 440.021 464.959 453.492 472.367C496.846 510.34 538.795 467.827 538.795 467.827L561.596 420.626C561.596 420.633 486.168 419.26 453.615 434.076ZM407.656 449.663C407.903 449.78 408.175 449.98 408.46 450.226C408.045 450.233 407.669 450.194 407.656 449.663Z" fill="#1B3A91"/>
<path d="M477.868 471.143C468.181 465.36 444.136 454.002 433.626 449.67C420.849 444.398 404.702 427.834 393.039 437.288C383.741 444.826 386.475 440.455 386.805 450.751C387.343 467.503 397.075 496.456 397.276 513.222L410.17 512.872C410.093 505.878 409.568 484.56 409.62 477.58C409.684 468.837 410.034 460.069 409.581 451.327C410.307 452.072 411.032 452.83 411.609 453.115C425.734 460.121 440.021 464.965 453.492 472.373C496.847 510.346 538.795 467.834 538.795 467.834L561.596 420.633C561.596 420.633 510.421 456.32 477.868 471.143ZM407.656 449.663C407.903 449.78 408.175 449.98 408.46 450.226C408.045 450.233 407.669 450.194 407.656 449.663Z" fill="#163078"/>
<path d="M521.035 443.524C519.363 446.568 526.069 432.127 523.413 434.62C517.873 439.814 504.557 458.159 496.685 460.283C487.173 462.854 495.02 457.401 495.02 457.401C495.02 457.401 415.808 418.269 417.473 416.339C430.51 401.212 442.873 396.479 467.871 404.709C496.316 414.073 529.043 428.954 521.035 443.524Z" fill="#163078"/>
<path d="M293.481 450.421C406.745 450.421 498.564 409.414 498.564 358.829C498.564 308.244 406.745 267.237 293.481 267.237C180.218 267.237 88.3994 308.244 88.3994 358.829C88.3994 409.414 180.218 450.421 293.481 450.421Z" fill="url(#paint1_linear_56_365)"/>
<path d="M295.03 429.563C408.294 429.563 500.112 388.556 500.112 337.971C500.112 287.386 408.294 246.379 295.03 246.379C181.767 246.379 89.9482 287.386 89.9482 337.971C89.9482 388.556 181.767 429.563 295.03 429.563Z" fill="#EBF5FF"/>
<path d="M367.322 272.962C383.093 281.4 423.188 286.729 424.937 283.42C430.594 272.709 442.212 246.451 449.184 236.497C461.754 218.547 441.901 209.17 431.009 225.897C425.326 234.626 420.136 257.932 416.993 265.359C415.84 268.079 381.201 260.315 358.127 261.247C353.773 261.422 363.492 270.909 367.322 272.962Z" fill="#FFB49E"/>
<path d="M446.235 217.232C448.795 220.373 448.95 225.871 444.188 232.677C437.585 242.105 428.702 272.573 422.3 278.751C414.628 286.159 377.06 278.686 367.322 272.884C383.093 281.322 423.188 286.651 424.937 283.342C430.594 272.632 442.212 246.373 449.183 236.42C456.538 225.916 452.793 218.353 446.235 217.232Z" fill="#EA8A6C"/>
<path d="M335.488 315.449L400.652 296.345L452.967 343.041L387.803 362.145L335.488 315.449Z" fill="#F5FAFF"/>
<path d="M389.762 331.778C389.848 328.765 385.306 326.191 379.619 326.029C373.931 325.868 369.251 328.18 369.165 331.193C369.08 334.207 373.621 336.781 379.309 336.943C384.996 337.104 389.676 334.792 389.762 331.778Z" fill="#CEDBED"/>
<path d="M379.328 331.547L389.358 331.133C390.498 331.45 385.885 322.74 372.427 327.383L379.328 331.547Z" fill="#2A66F7"/>
<path d="M344.948 318.596L401.442 301.837C402.09 301.643 402.304 301.202 401.915 300.853C401.527 300.503 400.684 300.373 400.036 300.561L343.542 317.32C342.894 317.514 342.68 317.955 343.069 318.304C343.457 318.654 344.3 318.784 344.948 318.596Z" fill="#B3CCF2"/>
<path d="M349.289 323.22L406.943 306.117C407.274 306.02 407.378 305.793 407.183 305.619C406.989 305.437 406.561 305.373 406.231 305.47L348.576 322.572C348.246 322.669 348.142 322.896 348.336 323.071C348.531 323.252 348.959 323.317 349.289 323.22Z" fill="#B3CCF2"/>
<path d="M351.512 325.227L409.166 308.125C409.496 308.028 409.6 307.801 409.406 307.626C409.211 307.445 408.784 307.38 408.453 307.477L350.799 324.579C350.468 324.676 350.365 324.903 350.559 325.078C350.754 325.259 351.181 325.324 351.512 325.227Z" fill="#B3CCF2"/>
<path d="M387.168 357.029L444.823 339.927C445.153 339.829 445.257 339.603 445.063 339.428C444.868 339.247 444.44 339.182 444.11 339.279L386.456 356.381C386.125 356.478 386.021 356.705 386.216 356.88C386.41 357.061 386.838 357.126 387.168 357.029Z" fill="#B3CCF2"/>
<path d="M389.391 359.036L447.045 341.934C447.375 341.837 447.479 341.61 447.285 341.435C447.09 341.254 446.663 341.189 446.332 341.286L388.678 358.389C388.347 358.486 388.244 358.712 388.438 358.887C388.632 359.069 389.06 359.133 389.391 359.036Z" fill="#B3CCF2"/>
<path d="M353.727 327.241L411.382 310.139C411.712 310.041 411.816 309.815 411.622 309.64C411.427 309.459 411 309.394 410.669 309.491L353.015 326.593C352.684 326.69 352.581 326.917 352.775 327.092C352.969 327.273 353.397 327.338 353.727 327.241Z" fill="#B3CCF2"/>
<path d="M390.2 324.327L417.693 316.18C418.179 316.038 418.269 315.643 417.887 315.293L417.855 315.261C417.473 314.918 416.773 314.756 416.287 314.898L388.794 323.045C388.308 323.187 388.218 323.582 388.6 323.932L388.632 323.964C389.015 324.314 389.714 324.476 390.2 324.327Z" fill="#B3CCF2"/>
<path d="M392.345 326.911L420.771 318.492C420.997 318.427 421.043 318.24 420.861 318.078L420.797 318.019C420.615 317.858 420.285 317.78 420.058 317.851L391.632 326.269C391.406 326.334 391.36 326.522 391.542 326.684L391.606 326.742C391.788 326.904 392.118 326.982 392.345 326.911Z" fill="#B3CCF2"/>
<path d="M394.561 328.918L422.987 320.5C423.214 320.435 423.259 320.247 423.078 320.085L423.013 320.027C422.831 319.865 422.501 319.787 422.274 319.859L393.849 328.277C393.622 328.342 393.577 328.529 393.758 328.691L393.823 328.75C394.004 328.912 394.335 328.989 394.561 328.918Z" fill="#B3CCF2"/>
<path d="M396.784 330.932L425.209 322.514C425.436 322.449 425.481 322.261 425.3 322.099L425.235 322.041C425.054 321.879 424.723 321.801 424.496 321.872L396.071 330.291C395.844 330.356 395.799 330.543 395.98 330.705L396.045 330.763C396.22 330.919 396.55 330.997 396.784 330.932Z" fill="#B3CCF2"/>
<path d="M399 332.939L427.425 324.521C427.652 324.456 427.697 324.269 427.516 324.107L427.451 324.048C427.27 323.887 426.939 323.809 426.713 323.88L398.287 332.298C398.06 332.363 398.015 332.551 398.196 332.713L398.261 332.771C398.436 332.933 398.767 333.004 399 332.939Z" fill="#B3CCF2"/>
<path d="M376.47 347.179L408.965 337.537C409.593 337.349 409.794 336.922 409.418 336.585L409.367 336.54C408.991 336.203 408.181 336.074 407.552 336.262L375.058 345.904C374.429 346.092 374.228 346.519 374.604 346.856L374.656 346.901C375.032 347.238 375.842 347.367 376.47 347.179Z" fill="#B3CCF2"/>
<path d="M378.55 349.808L412.283 339.804C412.568 339.719 412.658 339.525 412.49 339.37L412.393 339.279C412.224 339.124 411.855 339.065 411.57 339.15L377.838 349.161C377.553 349.245 377.462 349.439 377.63 349.595L377.728 349.685C377.896 349.841 378.265 349.893 378.55 349.808Z" fill="#B3CCF2"/>
<path d="M380.773 351.816L414.505 341.805C414.79 341.72 414.881 341.526 414.712 341.371L414.615 341.28C414.447 341.125 414.077 341.066 413.792 341.151L380.06 351.162C379.775 351.246 379.684 351.44 379.853 351.596L379.95 351.686C380.118 351.848 380.488 351.9 380.773 351.816Z" fill="#B3CCF2"/>
<path d="M382.989 353.83L416.721 343.825C417.006 343.741 417.097 343.546 416.929 343.391L416.831 343.3C416.663 343.145 416.293 343.087 416.008 343.171L382.276 353.182C381.991 353.266 381.9 353.461 382.069 353.616L382.166 353.707C382.335 353.856 382.704 353.914 382.989 353.83Z" fill="#B3CCF2"/>
<path d="M435.304 337.971L438.862 336.928L431.345 330.213L427.782 331.262L435.304 337.971Z" fill="#2A66F7"/>
<path d="M426.661 340.503L430.218 339.46L421.147 331.366L417.589 332.408L426.661 340.503Z" fill="#2A66F7"/>
<path d="M430.924 339.253L434.488 338.211L429.155 333.451L425.591 334.494L430.924 339.253Z" fill="#2A66F7"/>
<path d="M422.274 341.792L425.831 340.743L420.499 335.983L416.941 337.032L422.274 341.792Z" fill="#2A66F7"/>
<path d="M343.976 316.472L430.101 352.476L368.942 386.759L282.816 350.754L343.976 316.472Z" fill="#CFE5FF"/>
<path d="M282.635 348.507L343.795 314.225L429.913 350.229L368.76 384.512L282.635 348.507Z" fill="white"/>
<path d="M297.155 350.404L322.969 335.931C323.241 335.776 323.235 335.556 322.943 335.433L322.509 335.251C322.224 335.128 321.764 335.161 321.486 335.309L295.671 349.783C295.399 349.938 295.406 350.158 295.697 350.281L296.131 350.463C296.423 350.586 296.883 350.56 297.155 350.404Z" fill="#BEDBFA"/>
<path d="M302.539 352.651L328.354 338.178C328.626 338.023 328.619 337.803 328.328 337.68L327.894 337.498C327.608 337.375 327.148 337.408 326.87 337.557L301.056 352.03C300.783 352.185 300.79 352.405 301.081 352.528L301.516 352.71C301.807 352.839 302.267 352.807 302.539 352.651Z" fill="#BEDBFA"/>
<path d="M308.131 354.788L360.343 325.518C360.732 325.298 360.719 324.981 360.311 324.812C359.902 324.644 359.254 324.683 358.866 324.897L306.654 354.167C306.265 354.387 306.278 354.704 306.686 354.872C307.088 355.047 307.743 355.008 308.131 354.788Z" fill="#BEDBFA"/>
<path d="M340.12 342.122L365.935 327.649C366.207 327.493 366.2 327.273 365.909 327.15L365.475 326.969C365.19 326.846 364.729 326.878 364.451 327.027L338.637 341.5C338.364 341.656 338.371 341.876 338.663 341.999L339.097 342.18C339.382 342.31 339.842 342.277 340.12 342.122Z" fill="#BEDBFA"/>
<path d="M345.505 344.375L371.319 329.902C371.592 329.747 371.585 329.527 371.293 329.404L370.859 329.222C370.574 329.099 370.114 329.132 369.836 329.281L344.021 343.754C343.749 343.909 343.756 344.129 344.047 344.252L344.481 344.434C344.767 344.557 345.227 344.531 345.505 344.375Z" fill="#BEDBFA"/>
<path d="M324.285 361.542L376.496 332.272C376.885 332.052 376.872 331.735 376.464 331.567C376.056 331.398 375.408 331.437 375.019 331.651L322.807 360.921C322.419 361.141 322.432 361.458 322.84 361.627C323.241 361.795 323.896 361.756 324.285 361.542Z" fill="#BEDBFA"/>
<path d="M356.585 375.044L408.797 345.774C409.185 345.554 409.172 345.237 408.764 345.068C408.356 344.9 407.708 344.939 407.319 345.152L355.108 374.422C354.719 374.643 354.732 374.96 355.14 375.128C355.548 375.303 356.196 375.264 356.585 375.044Z" fill="#BEDBFA"/>
<path d="M361.969 377.298L414.181 348.028C414.57 347.807 414.557 347.49 414.149 347.322C413.74 347.153 413.092 347.192 412.704 347.406L360.492 376.676C360.103 376.896 360.116 377.213 360.524 377.382C360.932 377.55 361.58 377.511 361.969 377.298Z" fill="#BEDBFA"/>
<path d="M367.743 379.706L419.954 350.437C420.343 350.216 420.33 349.899 419.922 349.731C419.514 349.562 418.866 349.601 418.477 349.815L366.265 379.085C365.877 379.305 365.89 379.622 366.298 379.791C366.706 379.966 367.354 379.927 367.743 379.706Z" fill="#BEDBFA"/>
<path d="M311.306 356.478L336.55 342.329L344.235 345.541L318.991 359.69L311.306 356.478ZM336.583 343.009L312.706 356.394L318.965 359.01L342.842 345.625L336.583 343.009Z" fill="#BEDBFA"/>
<path d="M389.176 352.599L389.818 352.237L364.703 341.74L364.068 342.102L389.176 352.599Z" fill="#BEDBFA"/>
<path d="M326.475 362.896L380.17 332.79L405.621 343.43L351.926 373.535L326.475 362.896ZM380.202 333.457L327.842 362.812L351.894 372.868L404.254 343.514L380.202 333.457Z" fill="#BEDBFA"/>
<path d="M330.097 364.327L383.714 334.267L391.509 337.524L337.891 367.584L330.097 364.327ZM383.747 334.94L331.47 364.249L337.866 366.924L390.142 337.615L383.747 334.94Z" fill="#BEDBFA"/>
<path d="M344.287 370.259L397.904 340.198L405.699 343.456L352.081 373.516L344.287 370.259ZM397.93 340.872L345.654 370.181L352.043 372.855L404.319 343.546L397.93 340.872Z" fill="#BEDBFA"/>
<path d="M375.842 342.711L383.643 338.34L382.665 337.932L374.863 342.31L375.842 342.711Z" fill="#BEDBFA"/>
<path d="M383.202 345.794L391.004 341.416L390.032 341.015L382.23 345.386L383.202 345.794Z" fill="#BEDBFA"/>
<path d="M390.563 348.87L398.365 344.498L397.393 344.09L389.591 348.462L390.563 348.87Z" fill="#BEDBFA"/>
<path d="M365.008 355.993L372.809 351.615L371.837 351.214L364.036 355.585L365.008 355.993Z" fill="#BEDBFA"/>
<path d="M372.375 359.069L380.177 354.698L379.198 354.29L371.397 358.661L372.375 359.069Z" fill="#BEDBFA"/>
<path d="M335.501 339.447L361.134 325.078L344.17 317.987L318.538 332.35L335.501 339.447Z" fill="#2A66F7"/>
<path d="M417.59 407.681C411.771 414.053 399.201 420.911 391.004 414.52C383.378 408.562 386.676 375.2 381.953 365.609C380.106 361.853 390.22 357.197 392.287 360.83C397.199 369.456 399.842 379.525 401.268 387.497C401.404 388.261 417.661 362.274 418.128 362.145C419.009 361.899 452.819 369.093 417.59 407.681Z" fill="#FFB49E"/>
<path d="M468.59 241.542C467.767 237.909 467.916 234.49 467.3 233.052C466.257 230.605 464.702 231.725 464.702 231.725C463.458 234.25 464.268 237.831 465.512 241.393C466.782 245.045 467.857 248.775 468.59 252.576C469.024 254.836 469.736 257.012 470.702 257.038C472.458 257.077 469.438 245.317 468.59 241.542Z" fill="#3E68DE"/>
<path d="M277.185 373.393L233.034 353.933C240.816 350.773 246.79 348.183 251.753 345.146L295.846 364.521C288.777 367.481 283.172 370.136 277.185 373.393Z" fill="#C7DCFF"/>
<path d="M239.345 354.439L239.715 354.322C240.265 354.147 240.589 353.901 240.583 353.668C240.576 353.435 240.252 353.215 239.65 353.04L239.242 352.917L239.618 352.774C243.81 351.155 247.432 349.401 250.38 347.549L250.613 347.4L250.911 347.516C251.468 347.736 252.79 348.008 253.808 347.477L254.054 347.348L254.326 347.464L291.427 363.453L291.129 363.576C290.643 363.776 290.404 363.99 290.41 364.217C290.417 364.456 290.715 364.703 291.194 364.877L291.531 365L291.194 365.13C287.352 366.613 283.73 368.374 280.425 370.362L280.198 370.498L279.913 370.395C279.343 370.187 278.669 370.084 278.112 370.116C277.691 370.142 277.322 370.246 277.024 370.421L276.777 370.563L276.492 370.44L239.345 354.439ZM241.231 353.422C241.283 353.506 241.302 353.584 241.302 353.655C241.309 353.94 241.004 354.231 240.466 354.458L276.719 370.084C277.095 369.915 277.529 369.818 278.028 369.786C278.676 369.747 279.414 369.838 280.069 370.032C283.257 368.135 286.736 366.438 290.417 365C289.963 364.78 289.697 364.495 289.684 364.223C289.678 364.029 289.801 363.744 290.371 363.453L254.08 347.814C253.056 348.235 251.721 348.177 250.743 347.879C247.885 349.653 244.419 351.337 240.434 352.891C240.894 353.066 241.127 353.254 241.231 353.422Z" fill="#96B5EB"/>
<path d="M256.335 359.729C255.505 358.389 256.127 356.925 258.278 355.876C261.615 354.257 267.382 354.251 271.134 355.87C274.885 357.489 275.229 360.124 271.892 361.743C268.555 363.362 262.788 363.368 259.037 361.75C257.695 361.18 256.795 360.474 256.335 359.729ZM273.136 357.994C272.708 357.307 271.872 356.653 270.628 356.116C267.162 354.62 261.855 354.613 258.79 356.103C255.732 357.592 256.062 360.014 259.529 361.51C262.996 363.006 268.302 363.012 271.367 361.523C273.33 360.571 273.9 359.231 273.136 357.994Z" fill="#96B5EB"/>
<path d="M271.853 364.884C271.723 364.832 271.749 364.709 271.866 364.651C271.989 364.592 272.099 364.592 272.255 364.599C273.389 364.657 273.622 364.67 273.79 364.709C273.881 364.722 273.972 364.761 274.017 364.8C274.076 364.851 274.076 364.923 273.972 364.968C273.628 365.136 273.317 365.285 272.968 365.447L270.959 366.425C270.803 366.503 270.59 366.477 270.428 366.412C270.272 366.347 270.233 366.25 270.408 366.166C270.816 365.972 271.594 365.609 272.287 365.272C272.495 365.169 272.747 365.052 272.942 364.962C272.598 364.955 272.326 364.942 272.08 364.929C271.976 364.929 271.931 364.916 271.853 364.884Z" fill="#96B5EB"/>
<path d="M276.447 365.823C277.322 366.198 277.114 366.762 276.052 367.28C274.957 367.811 273.693 367.843 272.935 367.513C272.177 367.189 272.164 366.613 273.149 366.134C274.127 365.661 275.456 365.395 276.447 365.823ZM273.771 366.36C273.181 366.645 272.922 367.034 273.434 367.254C273.933 367.468 274.73 367.403 275.469 367.047C276.149 366.716 276.473 366.309 275.922 366.069C275.268 365.784 274.387 366.056 273.771 366.36Z" fill="#96B5EB"/>
<path d="M279.751 367.247C280.626 367.623 280.419 368.186 279.356 368.704C278.261 369.235 276.997 369.268 276.239 368.938C275.481 368.614 275.468 368.037 276.453 367.558C277.432 367.079 278.76 366.82 279.751 367.247ZM277.075 367.785C276.486 368.07 276.226 368.458 276.738 368.679C277.244 368.892 278.034 368.827 278.773 368.471C279.453 368.141 279.777 367.733 279.226 367.493C278.572 367.209 277.691 367.481 277.075 367.785Z" fill="#96B5EB"/>
<path d="M254.481 377.848L227.41 353.648C236.52 351.123 240.751 349.232 248.164 346.389L275.799 370.977C267.453 373.36 262.069 375.083 254.481 377.848Z" fill="#D9E8FF"/>
<path d="M230.546 354.821L230.961 354.736C231.577 354.607 232.037 354.393 232.192 354.147C232.341 353.908 232.192 353.655 231.765 353.409L231.473 353.247L231.914 353.137C236.819 351.894 241.302 350.443 245.235 348.831L245.546 348.701L245.734 348.85C246.097 349.129 247.114 349.537 248.404 349.096L248.721 348.986L248.89 349.135L271.963 369.197L271.613 369.294C271.037 369.449 270.674 369.65 270.525 369.883C270.369 370.129 270.473 370.414 270.79 370.641L271.017 370.803L270.622 370.906C266.125 372.052 261.641 373.496 257.294 375.213L256.996 375.329L256.801 375.193C256.419 374.928 255.875 374.753 255.343 374.733C254.942 374.72 254.54 374.785 254.145 374.941L253.821 375.064L253.639 374.908L230.546 354.821ZM232.95 353.966C232.944 354.057 232.905 354.141 232.86 354.212C232.672 354.51 232.199 354.775 231.557 354.957L254.099 374.558C254.553 374.422 255.019 374.364 255.492 374.384C256.108 374.41 256.723 374.571 257.19 374.837C261.369 373.199 265.678 371.806 270 370.693C269.734 370.421 269.676 370.103 269.857 369.825C269.981 369.624 270.285 369.346 270.998 369.099L248.43 349.478C247.212 349.809 246.039 349.614 245.346 349.213C241.549 350.748 237.259 352.14 232.581 353.338C232.879 353.564 232.963 353.785 232.95 353.966Z" fill="#96B5EB"/>
<path d="M241.069 360.707C241.276 359.302 242.864 357.884 245.514 357.016C249.622 355.662 254.741 356.129 256.937 358.045C259.127 359.962 257.572 362.624 253.464 363.977C249.356 365.331 244.237 364.864 242.041 362.948C241.257 362.261 240.952 361.484 241.069 360.707ZM257.216 360.318C257.326 359.6 257.041 358.874 256.315 358.24C254.294 356.472 249.583 356.038 245.812 357.275C242.047 358.512 240.622 360.966 242.65 362.734C244.672 364.502 249.382 364.936 253.153 363.699C255.57 362.909 257.021 361.614 257.216 360.318Z" fill="#96B5EB"/>
<path d="M253.62 369.099C253.548 369.035 253.652 368.918 253.795 368.873C253.944 368.821 254.041 368.834 254.177 368.847C255.142 368.996 255.337 369.028 255.46 369.08C255.531 369.099 255.583 369.145 255.596 369.19C255.609 369.248 255.563 369.32 255.434 369.358C255.013 369.501 254.63 369.624 254.203 369.76L251.728 370.576C251.533 370.641 251.358 370.602 251.268 370.518C251.177 370.44 251.209 370.343 251.429 370.265C251.928 370.103 252.874 369.805 253.73 369.52C253.982 369.436 254.293 369.339 254.533 369.261C254.235 369.229 254.002 369.19 253.788 369.158C253.697 369.151 253.665 369.138 253.62 369.099Z" fill="#96B5EB"/>
<path d="M257.034 370.401C257.546 370.848 256.963 371.398 255.661 371.826C254.313 372.266 253.172 372.201 252.725 371.813C252.285 371.424 252.674 370.854 253.892 370.453C255.097 370.051 256.458 369.896 257.034 370.401ZM254.287 370.725C253.561 370.964 253.056 371.327 253.354 371.593C253.645 371.852 254.397 371.845 255.311 371.547C256.147 371.275 256.73 370.887 256.406 370.608C256.017 370.272 255.045 370.472 254.287 370.725Z" fill="#96B5EB"/>
<path d="M258.965 372.091C259.477 372.538 258.894 373.088 257.585 373.516C256.237 373.956 255.097 373.891 254.65 373.503C254.209 373.114 254.598 372.544 255.816 372.143C257.021 371.741 258.388 371.586 258.965 372.091ZM256.211 372.415C255.486 372.655 254.98 373.017 255.278 373.283C255.57 373.542 256.321 373.535 257.235 373.237C258.071 372.965 258.654 372.577 258.33 372.298C257.948 371.955 256.969 372.162 256.211 372.415Z" fill="#96B5EB"/>
<path d="M244.652 342.342L222.402 352.587C221.844 352.846 220.937 352.774 220.38 352.425L208.425 345.016C207.868 344.673 207.868 344.181 208.432 343.922L230.682 333.678C231.24 333.419 232.147 333.49 232.704 333.84L244.659 341.248C245.216 341.591 245.209 342.083 244.652 342.342Z" fill="#97CBFF"/>
<path d="M237.499 336.812L213.227 347.989L210.065 346.033L234.337 334.85L237.499 336.812Z" fill="#1A3EA1"/>
<path d="M240.007 339.26L230.326 343.715L228.953 342.866L238.633 338.405L240.007 339.26Z" fill="white"/>
<path d="M213.085 364.994C207.454 361.737 197.579 361.283 191.041 363.984C184.497 366.678 183.765 371.502 189.396 374.759C195.026 378.016 204.901 378.47 211.439 375.769C217.983 373.069 218.722 368.245 213.085 364.994Z" fill="#CFE5FF"/>
<path d="M214.749 366.555C214.879 367.066 214.652 369.235 214.387 369.786C213.868 371.547 212.099 373.218 209.119 374.448C202.575 377.142 192.706 376.689 187.076 373.438C184.451 371.923 183.207 370.064 183.292 368.238C183.259 368.07 183.369 365.803 183.369 365.803C183.583 365.169 183.959 364.547 184.49 363.958C185.378 362.792 186.862 361.724 188.935 360.869C195.48 358.175 205.348 358.628 210.978 361.879C213.35 363.252 214.594 364.903 214.749 366.555Z" fill="#96B5EB"/>
<path d="M214.611 366.362C214.663 362.135 207.707 358.622 199.072 358.515C190.438 358.408 183.396 361.747 183.344 365.974C183.292 370.201 190.248 373.715 198.882 373.822C207.517 373.929 214.558 370.589 214.611 366.362Z" fill="#D9E8FF"/>
<path d="M207.655 362.572C203.527 360.189 196.303 359.859 191.508 361.834C186.72 363.809 186.175 367.345 190.303 369.728C194.43 372.111 201.655 372.441 206.45 370.466C211.238 368.491 211.782 364.955 207.655 362.572Z" fill="white"/>
<path d="M192.447 367.519C191.637 366.949 190.964 366.153 190.925 365.434L193.529 365.298C193.711 366.017 194.074 366.541 194.825 366.969C195.7 367.461 196.465 367.519 197.21 367.195C198.875 366.47 194.715 364.158 197.624 362.889C199.212 362.196 201.214 362.229 202.996 362.922L204.661 362.196L206.177 363.051L204.545 363.763C205.4 364.392 205.601 365.02 205.549 365.654L203.035 365.596C203.002 365.046 202.795 364.651 202.141 364.281C201.389 363.861 200.676 363.763 199.951 364.081C198.415 364.748 202.672 367.021 199.581 368.368C198.026 369.048 196.005 369.099 194.035 368.348L192.35 369.08L190.834 368.225L192.447 367.519Z" fill="#353559"/>
<path d="M214.905 361.983C215.034 362.494 214.808 364.664 214.542 365.214C214.024 366.975 212.255 368.646 209.274 369.877C202.73 372.57 192.862 372.117 187.231 368.866C184.607 367.351 183.363 365.493 183.447 363.666C183.414 363.498 183.525 361.232 183.525 361.232C183.738 360.597 184.114 359.975 184.646 359.386C185.533 358.22 187.017 357.152 189.091 356.297C195.635 353.603 205.503 354.057 211.134 357.307C213.505 358.68 214.749 360.331 214.905 361.983Z" fill="#96B5EB"/>
<path d="M214.765 361.792C214.818 357.565 207.861 354.052 199.227 353.945C190.593 353.838 183.551 357.178 183.498 361.405C183.446 365.632 190.403 369.145 199.037 369.252C207.671 369.359 214.713 366.019 214.765 361.792Z" fill="#D9E8FF"/>
<path d="M207.81 358C203.683 355.617 196.458 355.287 191.663 357.262C186.875 359.237 186.331 362.773 190.458 365.156C194.585 367.539 201.81 367.869 206.605 365.894C211.4 363.919 211.938 360.383 207.81 358Z" fill="white"/>
<path d="M192.603 362.948C191.793 362.378 191.119 361.581 191.08 360.862L193.685 360.726C193.866 361.445 194.229 361.97 194.981 362.397C195.855 362.889 196.62 362.948 197.365 362.624C199.03 361.899 194.87 359.587 197.78 358.318C199.367 357.625 201.369 357.657 203.151 358.35L204.816 357.625L206.333 358.479L204.7 359.192C205.555 359.82 205.756 360.448 205.704 361.083L203.19 361.024C203.164 360.474 202.95 360.079 202.296 359.71C201.544 359.289 200.832 359.192 200.106 359.509C198.57 360.176 202.827 362.449 199.737 363.796C198.181 364.476 196.16 364.528 194.19 363.777L192.505 364.508L190.989 363.653L192.603 362.948Z" fill="#353559"/>
<path d="M215.093 356.355C215.222 356.867 214.996 359.036 214.73 359.587C214.212 361.348 212.443 363.019 209.462 364.249C202.918 366.943 193.05 366.49 187.419 363.239C184.795 361.724 183.551 359.865 183.635 358.039C183.602 357.871 183.713 355.604 183.713 355.604C183.926 354.97 184.302 354.348 184.834 353.759C185.721 352.593 187.205 351.525 189.278 350.67C195.823 347.976 205.691 348.429 211.322 351.68C213.7 353.059 214.937 354.704 215.093 356.355Z" fill="#96B5EB"/>
<path d="M214.96 356.163C215.013 351.936 208.056 348.423 199.422 348.316C190.788 348.209 183.746 351.549 183.694 355.776C183.641 360.003 190.598 363.516 199.232 363.623C207.866 363.73 214.908 360.39 214.96 356.163Z" fill="#D9E8FF"/>
<path d="M208.004 352.379C203.877 349.996 196.652 349.666 191.858 351.641C187.069 353.616 186.525 357.152 190.652 359.535C194.78 361.918 202.004 362.248 206.799 360.273C211.588 358.292 212.125 354.762 208.004 352.379Z" fill="white"/>
<path d="M228.149 387.497C236.78 387.497 243.778 384.102 243.778 379.914C243.778 375.726 236.78 372.331 228.149 372.331C219.518 372.331 212.521 375.726 212.521 379.914C212.521 384.102 219.518 387.497 228.149 387.497Z" fill="#CFE5FF"/>
<path d="M239.877 377.026C239.987 377.537 239.676 379.681 239.384 380.225C238.795 381.973 236.961 383.624 233.929 384.842C227.281 387.51 217.425 387.063 211.924 383.838C209.359 382.336 208.192 380.497 208.348 378.69C208.322 378.521 208.523 376.281 208.523 376.281C208.762 375.653 209.158 375.038 209.721 374.455C210.654 373.302 212.184 372.24 214.289 371.398C220.937 368.73 230.793 369.177 236.294 372.402C238.62 373.755 239.793 375.387 239.877 377.026Z" fill="#96B5EB"/>
<path d="M224.132 384.207C232.763 384.207 239.76 380.812 239.76 376.624C239.76 372.436 232.763 369.041 224.132 369.041C215.501 369.041 208.503 372.436 208.503 376.624C208.503 380.812 215.501 384.207 224.132 384.207Z" fill="#D9E8FF"/>
<path d="M232.944 373.082C228.914 370.718 221.696 370.395 216.829 372.35C211.957 374.306 211.276 377.809 215.313 380.166C219.343 382.53 226.562 382.854 231.428 380.898C236.3 378.942 236.974 375.446 232.944 373.082Z" fill="white"/>
<path d="M187.251 304.453L200.631 297.524L188.248 292.758L173.806 299.693L187.251 304.453Z" fill="#FF40F6"/>
<path d="M200.631 297.524L200.838 306.823L201.24 324.592L187.931 331.133L187.25 304.453L200.631 297.524Z" fill="#F73BEE"/>
<path d="M187.251 304.453L187.899 331.139L174.311 328.031L173.676 299.693L187.251 304.453Z" fill="#EB0EDF"/>
<path d="M170.643 320.279L183.602 313.648L170.423 309.064L157.38 315.688L170.643 320.279Z" fill="#97CBFF"/>
<path d="M171 340.969L183.927 334.351L183.538 313.674L170.605 320.286L171 340.969Z" fill="#4D7CF0"/>
<path d="M171 340.969L157.853 336.346L157.464 315.662L170.605 320.286L171 340.969Z" fill="#446DD4"/>
<path d="M153.285 337.207L166.335 330.582L153.155 325.991L140.112 332.616L153.285 337.207Z" fill="white"/>
<path d="M153.771 350.333L140.223 345.399L139.983 332.616L153.519 337.207L153.771 350.333Z" fill="#A8C4E5"/>
<path d="M153.518 350.327L153.272 337.207L166.315 330.582L166.568 343.702L153.518 350.327Z" fill="#DBEFFF"/>
<path d="M217.192 315.986L276.642 340.212L354.084 297.628V292.583L301.477 278.084L217.192 315.986Z" fill="#C7DCFF"/>
<path d="M217.192 315.986L192.525 258.12L194.268 254.966L277.464 220.412L298.782 275.507L217.192 315.986Z" fill="#C7DCFF"/>
<path d="M220.167 312.567L276.642 335.167L354.084 292.583L301.478 273.04L220.167 312.567Z" fill="white"/>
<path d="M220.302 312.93L194.268 254.966L279.486 214.785L301.905 272.774L220.302 312.93Z" fill="#2F4C9C"/>
<path d="M220.827 305.515L199.503 258.035L277.529 221.241L296.346 269.439L220.827 305.515Z" fill="#97CBFF"/>
<path opacity="0.71" d="M269.132 259.583L258.266 233.713L206.404 257.161L217.464 283.504L269.132 259.583Z" fill="white"/>
<path d="M225.648 279.457C225.537 279.457 225.427 279.392 225.382 279.282L214.367 254.163C214.302 254.014 214.367 253.839 214.516 253.775C214.665 253.71 214.84 253.775 214.905 253.923L225.92 279.043C225.985 279.191 225.92 279.366 225.771 279.431C225.725 279.451 225.687 279.457 225.648 279.457Z" fill="#C2E0FF"/>
<path d="M241.963 271.524C241.853 271.524 241.743 271.459 241.698 271.349L230.598 246.042C230.534 245.894 230.598 245.719 230.747 245.654C230.896 245.589 231.071 245.654 231.136 245.803L242.235 271.11C242.3 271.259 242.235 271.434 242.086 271.498C242.041 271.518 242.002 271.524 241.963 271.524Z" fill="#C2E0FF"/>
<path d="M248.903 268.325C248.793 268.325 248.682 268.261 248.637 268.15L237.732 243.284C237.667 243.135 237.732 242.96 237.881 242.895C238.03 242.831 238.205 242.895 238.27 243.044L249.175 267.911C249.24 268.06 249.175 268.235 249.026 268.299C248.98 268.319 248.942 268.325 248.903 268.325Z" fill="#C2E0FF"/>
<path d="M262.898 261.455C262.788 261.455 262.678 261.39 262.633 261.28L251.819 236.62C251.754 236.472 251.819 236.297 251.968 236.232C252.117 236.167 252.292 236.232 252.356 236.381L263.171 261.04C263.235 261.189 263.171 261.364 263.022 261.429C262.976 261.448 262.937 261.455 262.898 261.455Z" fill="#C2E0FF"/>
<path d="M233.669 275.047C233.559 275.047 233.449 274.982 233.404 274.872L222.304 249.565C222.24 249.416 222.304 249.242 222.453 249.177C222.602 249.112 222.777 249.177 222.842 249.326L233.941 274.633C234.006 274.781 233.941 274.956 233.792 275.021C233.747 275.041 233.708 275.047 233.669 275.047Z" fill="#C2E0FF"/>
<path d="M255.376 262.219C255.266 262.219 255.156 262.154 255.11 262.044L245.261 239.586C245.197 239.437 245.261 239.263 245.41 239.198C245.559 239.133 245.734 239.198 245.799 239.347L255.648 261.804C255.713 261.953 255.648 262.128 255.499 262.193C255.454 262.212 255.415 262.219 255.376 262.219Z" fill="#C2E0FF"/>
<path d="M208.27 263.656C208.16 263.656 208.056 263.592 208.004 263.488C207.933 263.339 207.998 263.164 208.147 263.099L258.745 239.528C258.894 239.463 259.062 239.522 259.134 239.67C259.205 239.819 259.14 239.994 258.991 240.059L208.393 263.63C208.348 263.643 208.309 263.656 208.27 263.656Z" fill="#C2E0FF"/>
<path d="M210.395 268.261C210.285 268.261 210.181 268.196 210.13 268.092C210.058 267.943 210.123 267.768 210.272 267.704L260.864 244.132C261.013 244.068 261.181 244.126 261.253 244.275C261.324 244.424 261.259 244.599 261.11 244.663L210.512 268.235C210.48 268.254 210.434 268.261 210.395 268.261Z" fill="#C2E0FF"/>
<path d="M212.52 272.865C212.41 272.865 212.306 272.8 212.255 272.696C212.183 272.547 212.248 272.373 212.397 272.308L262.995 248.736C263.144 248.672 263.313 248.73 263.384 248.879C263.455 249.028 263.391 249.203 263.242 249.267L212.643 272.839C212.604 272.858 212.559 272.865 212.52 272.865Z" fill="#C2E0FF"/>
<path d="M214.646 277.475C214.536 277.475 214.432 277.411 214.38 277.307C214.309 277.158 214.374 276.983 214.523 276.918L265.121 253.347C265.27 253.282 265.445 253.341 265.51 253.49C265.581 253.639 265.516 253.813 265.367 253.878L214.769 277.449C214.73 277.462 214.685 277.475 214.646 277.475Z" fill="#C2E0FF"/>
<path opacity="0.47" d="M252.881 254.992L240 260.904L236.19 252.039L249.078 246.127L252.881 254.992Z" fill="#BADDFF"/>
<path d="M253.063 252.978L240.175 258.89L236.372 250.032L249.253 244.119L253.063 252.978Z" fill="white"/>
<path d="M249.447 248.756L239.825 253.114L239.184 251.599L248.806 247.24L249.447 248.756Z" fill="#BADDFF"/>
<path d="M248.028 250.401L240.201 253.988L240.952 255.762L248.78 252.181L248.028 250.401Z" fill="#BADDFF"/>
<path opacity="0.61" d="M214.205 276.038C214.205 276.038 216.369 271.414 219.441 273.253C222.512 275.099 223.024 274.212 224.611 271.99C226.199 269.769 222.551 261.37 226.127 260.198C229.71 259.02 233.073 267.904 234.959 267.121C236.844 266.337 234.181 263.177 236.669 262.199C240.214 260.813 243.155 267.237 244.445 265.346C245.734 263.462 245.456 260.982 248.235 260.049C250.587 259.259 252.065 263.015 254.507 261.927C262.866 258.204 251.546 248.665 260.942 240.409L269.171 259.441L217.432 283.504L214.205 276.038Z" fill="white"/>
<path d="M217.328 277.456C217.263 277.456 217.205 277.443 217.14 277.417C216.92 277.313 216.823 277.054 216.926 276.834C216.978 276.724 218.222 274.114 220.244 273.493C221.093 273.234 221.948 273.357 222.784 273.855C225.427 275.442 225.777 274.95 227.248 272.884L227.371 272.709C227.928 271.926 227.689 269.951 227.455 268.034C227.086 264.997 226.671 261.552 229.108 260.749C231.46 259.978 233.592 262.808 235.302 265.081C236.196 266.266 237.408 267.891 237.907 267.684C238.425 267.47 238.425 267.017 238.296 265.962C238.166 264.88 237.978 263.404 239.63 262.756C241.833 261.895 243.79 263.669 245.216 264.964C245.89 265.573 246.648 266.272 247.004 266.227C247.03 266.227 247.101 266.214 247.198 266.072C247.594 265.495 247.84 264.828 248.08 264.181C248.605 262.763 249.149 261.293 251.209 260.606C252.557 260.159 253.646 260.949 254.611 261.649C255.576 262.355 256.412 262.963 257.449 262.504C261.129 260.865 260.682 258.022 260.106 254.435C259.471 250.465 258.68 245.531 263.773 241.056C263.954 240.894 264.233 240.914 264.395 241.095C264.557 241.276 264.538 241.555 264.356 241.717C259.633 245.874 260.345 250.349 260.974 254.299C261.557 257.951 262.108 261.396 257.805 263.313C256.309 263.98 255.136 263.125 254.093 262.368C253.186 261.714 252.408 261.137 251.488 261.448C249.823 262.005 249.395 263.158 248.903 264.498C248.643 265.191 248.378 265.91 247.924 266.577C247.71 266.894 247.432 267.069 247.108 267.108C246.363 267.198 245.592 266.506 244.626 265.625C243.298 264.42 241.652 262.918 239.948 263.585C238.982 263.961 239.021 264.699 239.164 265.864C239.281 266.823 239.43 268.014 238.244 268.507C237.123 268.966 236.008 267.49 234.602 265.618C233.06 263.566 231.136 261.014 229.386 261.597C227.63 262.173 227.987 265.107 228.33 267.937C228.596 270.113 228.842 272.172 228.09 273.227L227.967 273.402C226.341 275.688 225.551 276.543 222.337 274.613C221.715 274.238 221.112 274.147 220.503 274.335C218.844 274.84 217.736 277.184 217.723 277.203C217.652 277.365 217.497 277.456 217.328 277.456Z" fill="#2A66F7"/>
<path d="M252.745 260.632C253.043 261.416 252.674 262.212 251.922 262.406C251.164 262.601 250.309 262.122 250.01 261.338C249.712 260.554 250.082 259.758 250.833 259.564C251.591 259.363 252.447 259.842 252.745 260.632Z" fill="#FF1CF4"/>
<path opacity="0.71" d="M285.304 251.676L274.607 226.583L260.235 233.234L270.933 258.327L285.304 251.676Z" fill="white"/>
<path d="M281.242 245.764L271.665 250.103L271.03 248.626L280.607 244.288L281.242 245.764Z" fill="#BADDFF"/>
<path d="M279.829 247.39L272.041 250.958L272.78 252.693L280.568 249.125L279.829 247.39Z" fill="#BADDFF"/>
<path d="M268.516 231.615C270.506 230.624 272.78 230.831 274.626 231.952L273.577 233.933C272.346 233.201 270.842 233.072 269.521 233.732C267.713 234.626 266.819 236.705 267.201 238.745L265.076 239.172C264.46 236.102 265.795 232.962 268.516 231.615Z" fill="#5986FF"/>
<path d="M268.516 231.615C270.506 230.624 272.78 230.831 274.626 231.952L273.577 233.933C272.346 233.201 270.842 233.072 269.521 233.732C267.713 234.626 266.819 236.705 267.201 238.745L265.076 239.172C264.46 236.102 265.795 232.962 268.516 231.615Z" fill="#5986FF"/>
<path d="M277.983 240.111L275.858 239.476C276.13 238.401 276.033 237.197 275.508 236.083C275.035 235.079 274.277 234.309 273.402 233.842L274.251 231.744C275.579 232.444 276.726 233.596 277.452 235.118C278.223 236.75 278.365 238.518 277.983 240.111Z" fill="#FF1CF4"/>
<path d="M274.244 231.738L273.402 233.836L274.251 231.738H274.244Z" fill="#29479C"/>
<path d="M277.983 240.111L275.858 239.476H275.851C275.54 240.707 274.756 241.782 273.596 242.358C271.413 243.439 268.73 242.39 267.603 240.007C267.408 239.599 267.279 239.172 267.201 238.751L265.076 239.191C265.199 239.794 265.393 240.389 265.665 240.972C267.344 244.521 271.341 246.088 274.601 244.475C276.35 243.595 277.529 241.976 277.983 240.111Z" fill="#29479C"/>
<path opacity="0.71" d="M292.639 268.533L286.503 254.124L272.08 260.626L278.216 275.034L292.639 268.533Z" fill="white"/>
<path opacity="0.71" d="M275.793 275.824L269.844 261.37L218.449 285.576L224.935 300.982L233.644 296.734L233.67 296.792L275.793 275.824Z" fill="white"/>
<path d="M230.549 294.024C232.819 293.928 234.564 291.599 234.447 288.823C234.329 286.047 232.393 283.874 230.123 283.97C227.853 284.066 226.108 286.394 226.225 289.171C226.343 291.947 228.279 294.12 230.549 294.024Z" fill="#FF1CF4"/>
<path d="M263.255 270.508L236.248 284.1C235.814 284.32 235.257 284.029 235.011 283.452C234.764 282.876 234.92 282.228 235.354 282.008L262.36 268.416C262.795 268.196 263.352 268.487 263.598 269.063C263.844 269.64 263.689 270.287 263.255 270.508Z" fill="#BADDFF"/>
<path d="M251.508 281.717L238.108 288.458C237.674 288.678 237.117 288.387 236.87 287.81C236.624 287.234 236.78 286.587 237.214 286.366L250.613 279.625C251.048 279.405 251.605 279.696 251.851 280.273C252.097 280.849 251.942 281.497 251.508 281.717Z" fill="#BADDFF"/>
<path d="M230.942 291.676C230.857 291.676 230.767 291.657 230.689 291.618L227.903 290.291C227.611 290.148 227.488 289.798 227.624 289.507C227.76 289.216 228.117 289.093 228.408 289.229L230.43 290.193L230.793 286.043C230.819 285.719 231.104 285.486 231.428 285.512C231.752 285.538 231.991 285.822 231.959 286.146L231.525 291.145C231.505 291.34 231.395 291.508 231.233 291.605C231.143 291.651 231.045 291.676 230.942 291.676Z" fill="white"/>
<path d="M300.726 281.652C300.901 281.717 301.186 281.698 301.361 281.613L306.175 279.178C306.35 279.088 306.35 278.965 306.168 278.9L301.302 277.087C301.127 277.022 300.842 277.042 300.667 277.126L295.853 279.561C295.678 279.651 295.678 279.774 295.86 279.839L300.726 281.652Z" fill="#C7DCFF"/>
<path d="M297.441 289.196C297.616 289.261 297.901 289.248 298.076 289.157L302.89 286.723C303.065 286.632 303.058 286.509 302.883 286.444L298.017 284.631C297.842 284.566 297.564 284.586 297.389 284.67L292.575 287.105C292.4 287.195 292.4 287.318 292.575 287.383L297.441 289.196Z" fill="#C7DCFF"/>
<path d="M302.573 292.486C302.747 292.551 303.033 292.531 303.201 292.447L308.015 290.012C308.184 289.928 308.19 289.799 308.015 289.734L303.149 287.921C302.974 287.856 302.689 287.875 302.521 287.959L297.706 290.394C297.531 290.485 297.538 290.608 297.706 290.673L302.573 292.486Z" fill="#C7DCFF"/>
<path d="M312.518 293.341C312.693 293.405 312.978 293.386 313.147 293.302L317.961 290.867C318.13 290.783 318.13 290.653 317.955 290.589L313.088 288.775C312.914 288.711 312.628 288.73 312.454 288.814L307.639 291.249C307.464 291.333 307.471 291.463 307.646 291.528L312.518 293.341Z" fill="#C7DCFF"/>
<path d="M328.367 291.955C328.542 292.02 328.827 292 329.002 291.916L333.816 289.481C333.991 289.391 333.991 289.268 333.816 289.203L328.101 287.072C327.933 287.008 327.641 287.027 327.466 287.111L322.652 289.546C322.477 289.637 322.484 289.76 322.652 289.825L328.367 291.955Z" fill="#C7DCFF"/>
<path d="M320.067 296.151C320.242 296.216 320.572 296.177 320.799 296.061L327.11 292.868C327.337 292.751 327.382 292.609 327.207 292.544L321.492 290.414C321.324 290.349 320.987 290.388 320.76 290.504L314.449 293.697C314.222 293.813 314.184 293.962 314.352 294.027L320.067 296.151Z" fill="#C7DCFF"/>
<path d="M278.631 317.145C278.78 317.197 279.039 317.171 279.208 317.087L284.022 314.652C284.197 314.561 284.223 314.445 284.074 314.393L281.961 313.603C281.819 313.551 281.553 313.577 281.378 313.668L276.564 316.103C276.389 316.193 276.37 316.303 276.512 316.362L278.631 317.145Z" fill="#C7DCFF"/>
<path d="M272.242 320.487C272.391 320.539 272.65 320.513 272.819 320.429L277.633 317.994C277.808 317.903 277.834 317.786 277.685 317.735L275.573 316.945C275.43 316.893 275.164 316.919 274.99 317.009L270.175 319.444C270 319.535 269.981 319.645 270.123 319.703L272.242 320.487Z" fill="#C7DCFF"/>
<path d="M265.38 323.854C265.523 323.906 265.776 323.88 265.951 323.789L270.765 321.354C270.94 321.27 270.966 321.154 270.83 321.102L268.795 320.344C268.659 320.292 268.393 320.325 268.225 320.409L263.411 322.844C263.236 322.935 263.21 323.045 263.352 323.096L265.38 323.854Z" fill="#C7DCFF"/>
<path d="M268.257 319.036C268.4 319.088 268.653 319.062 268.827 318.971L273.642 316.537C273.817 316.452 273.843 316.336 273.707 316.284L271.672 315.526C271.529 315.475 271.27 315.507 271.102 315.591L266.288 318.026C266.113 318.117 266.087 318.227 266.229 318.279L268.257 319.036Z" fill="#C7DCFF"/>
<path d="M286.937 312.897C287.112 312.962 287.397 312.943 287.572 312.858L318.914 297.012C319.082 296.928 319.089 296.799 318.914 296.734L313.199 294.603C313.03 294.539 312.739 294.558 312.564 294.642L281.223 310.488C281.048 310.579 281.054 310.702 281.223 310.767L286.937 312.897Z" fill="#C7DCFF"/>
<path d="M320.611 295.07C320.624 295.076 320.65 295.07 320.67 295.057L324.35 293.198C324.369 293.185 324.376 293.179 324.369 293.172L324.013 293.043C324 293.036 323.974 293.043 323.955 293.056L320.274 294.914C320.255 294.927 320.248 294.934 320.255 294.94L320.611 295.07Z" fill="#C7DCFF"/>
<path d="M329.864 289.922C329.877 289.928 329.89 289.928 329.897 289.922L331.458 289.132C331.465 289.125 331.465 289.119 331.452 289.119L331.095 288.989C331.082 288.983 331.069 288.983 331.063 288.989L329.501 289.779C329.495 289.786 329.495 289.792 329.508 289.792L329.864 289.922Z" fill="#C7DCFF"/>
<path d="M305.916 296.676C306.091 296.74 306.376 296.721 306.551 296.637L311.365 294.202C311.534 294.118 311.534 293.988 311.365 293.924L306.499 292.11C306.324 292.046 306.033 292.065 305.864 292.149L301.05 294.584C300.875 294.675 300.881 294.798 301.056 294.862L305.916 296.676Z" fill="#C7DCFF"/>
<path d="M299.287 300.03C299.462 300.095 299.747 300.076 299.916 299.991L304.73 297.556C304.905 297.472 304.905 297.343 304.73 297.278L299.864 295.465C299.689 295.4 299.404 295.419 299.229 295.504L294.415 297.939C294.246 298.023 294.246 298.152 294.421 298.217L299.287 300.03Z" fill="#C7DCFF"/>
<path d="M292.653 303.385C292.828 303.449 293.113 303.43 293.281 303.346L298.095 300.911C298.27 300.827 298.264 300.697 298.089 300.632L293.223 298.819C293.048 298.754 292.763 298.774 292.588 298.858L287.774 301.293C287.599 301.377 287.605 301.507 287.78 301.571L292.653 303.385Z" fill="#C7DCFF"/>
<path d="M286.024 306.732C286.199 306.797 286.484 306.778 286.653 306.694L291.467 304.259C291.642 304.168 291.635 304.045 291.467 303.98L286.601 302.167C286.426 302.102 286.141 302.122 285.966 302.206L281.151 304.641C280.977 304.731 280.983 304.854 281.158 304.919L286.024 306.732Z" fill="#C7DCFF"/>
<path d="M279.389 310.087C279.564 310.152 279.849 310.132 280.024 310.048L284.838 307.613C285.013 307.529 285.007 307.399 284.832 307.335L279.966 305.521C279.791 305.457 279.506 305.476 279.331 305.56L274.516 307.995C274.342 308.086 274.342 308.209 274.516 308.274L279.389 310.087Z" fill="#C7DCFF"/>
<path d="M272.76 313.435C272.935 313.499 273.22 313.48 273.395 313.396L278.209 310.961C278.384 310.87 278.378 310.747 278.209 310.683L273.343 308.869C273.168 308.805 272.883 308.824 272.708 308.908L267.894 311.343C267.719 311.427 267.726 311.557 267.901 311.621L272.76 313.435Z" fill="#C7DCFF"/>
<path d="M257.825 320.985C258 321.05 258.285 321.031 258.46 320.947L271.581 314.315C271.756 314.225 271.75 314.102 271.581 314.037L266.715 312.224C266.54 312.159 266.255 312.179 266.08 312.263L252.959 318.894C252.784 318.984 252.791 319.107 252.966 319.172L257.825 320.985Z" fill="#C7DCFF"/>
<path d="M295.97 295.821C296.145 295.886 296.423 295.866 296.598 295.782L301.413 293.347C301.588 293.257 301.588 293.134 301.406 293.069L296.54 291.256C296.365 291.191 296.086 291.21 295.912 291.294L291.097 293.729C290.922 293.82 290.929 293.943 291.104 294.008L295.97 295.821Z" fill="#C7DCFF"/>
<path d="M289.341 299.175C289.516 299.24 289.801 299.221 289.97 299.136L294.79 296.702C294.959 296.617 294.959 296.494 294.784 296.423L289.918 294.61C289.743 294.545 289.464 294.565 289.289 294.649L284.469 297.084C284.3 297.168 284.3 297.297 284.469 297.362L289.341 299.175Z" fill="#C7DCFF"/>
<path d="M282.706 302.523C282.881 302.588 283.166 302.569 283.335 302.484L288.149 300.05C288.318 299.965 288.324 299.836 288.149 299.771L283.283 297.958C283.108 297.893 282.823 297.913 282.654 297.997L277.84 300.432C277.665 300.516 277.672 300.645 277.84 300.71L282.706 302.523Z" fill="#C7DCFF"/>
<path d="M276.078 305.878C276.253 305.942 276.538 305.923 276.706 305.839L281.521 303.404C281.696 303.313 281.696 303.19 281.521 303.125L276.655 301.312C276.48 301.247 276.195 301.267 276.026 301.351L271.212 303.786C271.037 303.87 271.043 304 271.212 304.064L276.078 305.878Z" fill="#C7DCFF"/>
<path d="M269.443 309.226C269.618 309.29 269.903 309.271 270.071 309.187L274.892 306.752C275.067 306.661 275.067 306.538 274.886 306.473L270.019 304.66C269.845 304.595 269.566 304.615 269.391 304.699L264.57 307.134C264.395 307.218 264.402 307.348 264.57 307.412L269.443 309.226Z" fill="#C7DCFF"/>
<path d="M262.814 312.58C262.989 312.645 263.274 312.625 263.443 312.541L268.257 310.106C268.432 310.016 268.432 309.893 268.257 309.828L263.391 308.015C263.216 307.95 262.931 307.969 262.756 308.06L257.942 310.495C257.767 310.579 257.773 310.709 257.942 310.773L262.814 312.58Z" fill="#C7DCFF"/>
<path d="M256.179 315.934C256.354 315.999 256.639 315.98 256.808 315.896L261.628 313.461C261.803 313.376 261.797 313.253 261.622 313.182L256.756 311.369C256.581 311.304 256.302 311.324 256.127 311.408L251.307 313.843C251.132 313.927 251.138 314.056 251.307 314.121L256.179 315.934Z" fill="#C7DCFF"/>
<path d="M290.838 292.531C291.013 292.596 291.298 292.577 291.473 292.492L296.287 290.058C296.456 289.973 296.456 289.844 296.281 289.779L291.415 287.966C291.24 287.901 290.955 287.921 290.786 288.005L285.972 290.44C285.797 290.53 285.804 290.653 285.972 290.718L290.838 292.531Z" fill="#C7DCFF"/>
<path d="M284.209 295.879C284.384 295.944 284.669 295.925 284.844 295.84L289.659 293.406C289.834 293.315 289.834 293.192 289.652 293.127L284.786 291.314C284.611 291.249 284.326 291.269 284.158 291.353L279.343 293.788C279.175 293.872 279.175 294.001 279.35 294.066L284.209 295.879Z" fill="#C7DCFF"/>
<path d="M277.581 299.234C277.756 299.298 278.041 299.279 278.216 299.195L283.03 296.76C283.205 296.676 283.199 296.546 283.024 296.481L278.158 294.668C277.983 294.604 277.698 294.623 277.529 294.707L272.715 297.142C272.54 297.233 272.54 297.356 272.715 297.42L277.581 299.234Z" fill="#C7DCFF"/>
<path d="M270.946 302.588C271.121 302.653 271.406 302.64 271.581 302.549L276.396 300.114C276.57 300.024 276.57 299.901 276.389 299.836L271.523 298.023C271.348 297.958 271.063 297.977 270.894 298.062L266.08 300.496C265.905 300.587 265.912 300.71 266.087 300.775L270.946 302.588Z" fill="#C7DCFF"/>
<path d="M264.311 305.936C264.486 306.001 264.771 305.981 264.946 305.897L269.76 303.462C269.935 303.372 269.929 303.249 269.754 303.184L264.888 301.371C264.713 301.306 264.434 301.325 264.259 301.409L259.445 303.844C259.276 303.928 259.276 304.058 259.451 304.123L264.311 305.936Z" fill="#C7DCFF"/>
<path d="M257.682 309.29C257.857 309.355 258.142 309.336 258.317 309.251L263.132 306.817C263.3 306.732 263.3 306.603 263.125 306.538L258.259 304.725C258.084 304.66 257.799 304.68 257.631 304.764L252.816 307.199C252.641 307.289 252.641 307.412 252.816 307.477L257.682 309.29Z" fill="#C7DCFF"/>
<path d="M251.054 312.638C251.229 312.703 251.514 312.684 251.689 312.599L256.503 310.164C256.678 310.074 256.672 309.951 256.497 309.886L251.631 308.073C251.456 308.008 251.177 308.028 251.002 308.112L246.188 310.547C246.013 310.631 246.019 310.76 246.188 310.825L251.054 312.638Z" fill="#C7DCFF"/>
<path d="M304.069 285.842C304.244 285.907 304.529 285.887 304.704 285.803L312.868 281.672C313.043 281.581 313.043 281.458 312.862 281.393L307.996 279.58C307.821 279.515 307.536 279.535 307.367 279.619L299.203 283.744C299.028 283.835 299.035 283.958 299.203 284.022L304.069 285.842Z" fill="#C7DCFF"/>
<path d="M237.719 313.493C237.894 313.558 238.179 313.538 238.354 313.454L246.518 309.323C246.687 309.238 246.687 309.109 246.512 309.044L241.646 307.231C241.471 307.166 241.186 307.186 241.011 307.27L232.847 311.401C232.672 311.492 232.672 311.615 232.853 311.68L237.719 313.493Z" fill="#C7DCFF"/>
<path d="M309.207 289.132C309.382 289.196 309.661 289.177 309.836 289.093L319.568 284.171C319.743 284.081 319.743 283.957 319.568 283.893L314.702 282.08C314.527 282.015 314.242 282.034 314.073 282.118L304.341 287.04C304.166 287.131 304.173 287.254 304.341 287.318L309.207 289.132Z" fill="#C7DCFF"/>
<path d="M319.147 289.993C319.322 290.058 319.607 290.038 319.782 289.954L326.274 286.671C326.449 286.58 326.443 286.457 326.274 286.392L321.408 284.579C321.233 284.514 320.948 284.534 320.773 284.618L314.281 287.901C314.106 287.992 314.112 288.115 314.287 288.18L319.147 289.993Z" fill="#C7DCFF"/>
<path d="M294.091 285C294.266 285.065 294.551 285.045 294.726 284.961L299.54 282.526C299.715 282.436 299.715 282.313 299.533 282.248L294.667 280.435C294.492 280.37 294.207 280.389 294.032 280.474L289.218 282.908C289.043 282.999 289.043 283.122 289.218 283.187L294.091 285Z" fill="#C7DCFF"/>
<path d="M287.488 288.335C287.663 288.4 287.948 288.38 288.123 288.296L292.938 285.861C293.113 285.777 293.106 285.648 292.931 285.583L288.065 283.77C287.89 283.705 287.605 283.724 287.43 283.809L282.616 286.243C282.441 286.334 282.441 286.457 282.622 286.522L287.488 288.335Z" fill="#C7DCFF"/>
<path d="M280.86 291.689C281.035 291.754 281.32 291.741 281.488 291.651L286.302 289.216C286.477 289.132 286.471 289.002 286.296 288.937L281.43 287.124C281.255 287.059 280.97 287.079 280.795 287.163L275.981 289.598C275.806 289.688 275.812 289.812 275.987 289.876L280.86 291.689Z" fill="#C7DCFF"/>
<path d="M274.225 295.044C274.4 295.109 274.685 295.089 274.86 295.005L279.674 292.57C279.849 292.479 279.849 292.356 279.667 292.292L274.801 290.478C274.626 290.414 274.341 290.433 274.166 290.517L269.352 292.952C269.177 293.043 269.177 293.166 269.359 293.231L274.225 295.044Z" fill="#C7DCFF"/>
<path d="M267.596 298.392C267.771 298.457 268.05 298.444 268.225 298.353L273.039 295.918C273.214 295.827 273.214 295.704 273.033 295.64L268.167 293.826C267.992 293.762 267.707 293.781 267.532 293.865L262.717 296.3C262.542 296.391 262.549 296.514 262.724 296.579L267.596 298.392Z" fill="#C7DCFF"/>
<path d="M260.961 301.746C261.136 301.811 261.421 301.792 261.596 301.707L266.417 299.273C266.592 299.188 266.586 299.059 266.411 298.994L261.545 297.181C261.37 297.116 261.084 297.136 260.916 297.22L256.095 299.655C255.927 299.739 255.927 299.868 256.102 299.933L260.961 301.746Z" fill="#C7DCFF"/>
<path d="M254.333 305.101C254.508 305.165 254.793 305.146 254.968 305.062L259.782 302.627C259.957 302.536 259.957 302.413 259.782 302.348L254.916 300.535C254.741 300.47 254.456 300.49 254.281 300.574L249.467 303.009C249.292 303.1 249.292 303.223 249.473 303.287L254.333 305.101Z" fill="#C7DCFF"/>
<path d="M247.704 308.448C247.879 308.513 248.164 308.494 248.333 308.41L253.153 305.975C253.322 305.891 253.322 305.761 253.147 305.696L248.281 303.883C248.106 303.818 247.821 303.838 247.652 303.922L242.832 306.357C242.657 306.441 242.663 306.571 242.838 306.635L247.704 308.448Z" fill="#C7DCFF"/>
<path d="M244.367 311.466C244.445 311.427 244.555 311.395 244.678 311.388C244.802 311.382 244.912 311.395 244.989 311.427L249.856 313.241C249.94 313.273 249.992 313.318 249.992 313.37C249.992 313.422 249.946 313.474 249.862 313.519L248.605 314.154L254.987 316.53C255.072 316.563 255.117 316.608 255.117 316.66C255.117 316.711 255.072 316.763 254.987 316.809L251.741 318.447C251.657 318.486 251.553 318.518 251.424 318.525C251.301 318.531 251.19 318.518 251.106 318.486L239.54 314.173C239.456 314.141 239.411 314.095 239.411 314.043C239.411 313.985 239.456 313.94 239.54 313.895L244.367 311.466Z" fill="#C7DCFF"/>
<path d="M319.529 288.575C319.542 288.581 319.568 288.575 319.588 288.562L323.268 286.703C323.287 286.69 323.294 286.684 323.287 286.677L322.931 286.548C322.918 286.541 322.892 286.548 322.873 286.561L319.192 288.419C319.173 288.432 319.166 288.439 319.173 288.445L319.529 288.575Z" fill="#C7DCFF"/>
<path d="M305.838 317.029L323.508 307.73C323.715 307.62 323.631 307.432 323.326 307.315L312.408 302.964C312.104 302.841 311.689 302.834 311.482 302.938L293.812 312.237C293.605 312.347 293.689 312.535 293.994 312.651L304.912 317.003C305.216 317.126 305.631 317.139 305.838 317.029Z" fill="#C7DCFF"/>
<path d="M423.907 318.68L478.522 314.432L473.754 338.405L418.114 330.906L423.907 318.68Z" fill="#FFB49E"/>
<path d="M488.644 488.401L402.013 443.518C387.985 436.246 377.138 439.658 377.916 451.101L378.661 462.09C379.438 473.526 391.549 488.834 405.583 496.107L414.797 500.879C466.302 519.561 485.747 510.495 504.557 500.879C500.048 495.893 494.521 491.438 488.644 488.401Z" fill="#4975E3"/>
<path d="M395.663 325.985C395.663 325.985 383.035 332.939 382.439 327.85C382.289 326.574 384.577 325.097 387.706 323.699C386.436 323.563 385.413 322.986 384.894 321.762C384.894 321.762 386.721 320.746 389.054 319.677C388.439 319.36 387.946 318.861 387.635 318.13C387.635 318.13 393.486 314.859 397.665 313.914C399.084 313.512 402.927 314.121 407.274 314.348C411.752 314.581 413.061 314.71 424.367 318.57C424.367 318.57 424.102 318.945 423.667 319.489C425.708 320.008 427.367 321.633 427.769 323.653L427.814 323.886C428.508 327.37 426.564 330.641 423.143 331.715L415.795 334.034L403.957 333.419C403.957 333.419 397.853 334.992 396.752 332.551C395.521 329.831 403.14 329.643 403.14 329.643L408.687 329.339C410.223 329.048 410.916 328.944 410.76 327.474C410.67 326.6 409.393 326.224 409.309 326.069C409.128 325.706 395.663 325.985 395.663 325.985Z" fill="#FFB49E"/>
<path d="M387.817 323.945L387.596 323.459L394.801 320.163L394.879 320.169L409.289 321.711L409.231 322.242L394.892 320.707L387.817 323.945Z" fill="#EA986C"/>
<path d="M389.268 319.846L388.847 319.515C389.203 319.056 394.49 316.569 396.11 315.818L396.175 315.785L396.246 315.792L410.657 317.32L410.598 317.851L396.266 316.329C393.7 317.527 389.585 319.509 389.268 319.846Z" fill="#EA986C"/>
<path d="M557.307 320.849C557.313 319.567 557.255 318.24 557.132 316.86C556.251 306.946 556.873 302.86 549.628 295.743C537.24 283.575 523.315 281.529 507.039 286.71C507.039 286.71 503.209 304.764 468.687 307.678C462.635 311.142 455.955 314.089 448.451 317.184C430.225 324.709 432.415 347.212 438.829 358.292C446.035 403.595 448.704 383.391 444.337 421.021C442.814 434.141 446.514 447.358 454.711 457.712C504.7 520.856 536.002 480.921 562.484 433.662C568.873 431.602 562.704 378.178 557.307 320.849Z" fill="#3365DE"/>
<path d="M438.862 356.265L469.97 345.619C470.352 352.69 466.691 364.307 467.158 376.618C467.767 392.548 472.354 409.605 471.071 419.117C465.473 460.652 468.875 462.31 492.292 489.281C473.825 477.657 458.235 464.816 448.16 449.67C444.499 444.172 442.944 437.541 443.644 430.974C445.814 410.706 445.004 407.06 438.862 356.265Z" fill="#0F3CB8"/>
<path d="M478.25 393.972L440.916 478.402C440.436 479.49 439.853 480.941 439.231 482.624C434.942 494.229 440.164 511.234 452.533 510.819C466.989 513.52 482.138 511.117 497.844 504.68L548.948 483.725C576.065 472.606 593.78 444.237 593.78 411.923V356.588C593.78 338.016 576.117 325.156 561 332.719L516.078 355.203C500.138 363.181 485.009 378.69 478.25 393.972Z" fill="#4D7CF0"/>
<path d="M486.933 403.964C497.384 389.588 514.639 374.565 530.572 366.593L575.494 344.11C580.931 341.39 585.246 341.371 590.404 343.249C585.402 330.686 573.129 323.602 561.032 329.656L516.11 352.14C500.177 360.118 485.047 375.62 478.283 390.909L440.948 475.339C440.469 476.427 439.885 477.878 439.263 479.561C435.382 490.091 486.933 403.964 486.933 403.964Z" fill="#5984F0"/>
<path d="M330.68 254.26C330.667 254.306 330.33 255.322 331.153 256.3C331.16 256.307 331.166 256.313 331.173 256.32C332.656 258.061 336.719 258.45 343.263 257.479C343.497 257.498 344.371 257.692 345.577 257.99C343.412 258.482 341.119 259.713 339.797 261.222C334.561 267.205 333.389 270.942 333.337 271.097L333.272 271.311L333.389 271.498C333.434 271.57 333.842 272.198 334.821 272.23C336.732 272.295 339.343 270.022 342.57 265.463C343.438 264.239 344.916 263.52 346.97 263.307C345.706 263.663 344.598 264.336 343.853 265.23C341.514 268.027 337.898 274.866 337.743 275.157L337.6 275.429L337.782 275.682C337.827 275.746 338.248 276.29 339.168 276.271C339.492 276.265 339.829 276.187 340.179 276.044C340.108 276.135 340.069 276.187 340.069 276.187L339.764 276.588L340.166 276.886C343.147 279.088 345.661 275.96 347.501 273.674C347.741 273.376 347.967 273.091 348.194 272.819C349.069 271.77 350.592 270.65 352.011 270.935C355.911 271.725 358.73 272.58 359.942 273.344C360.24 273.532 363.013 274.561 363.402 274.743C370.717 278.194 374.967 269.148 370.309 262.4C361.963 259.033 350.65 252.259 345.369 252.836L345.291 252.816L330.784 253.943L330.68 254.26Z" fill="#FFB49E"/>
<path d="M340.834 275.74L340.51 275.468L348.434 266.046L354.855 266.674L354.81 267.088L348.609 266.486L340.834 275.74Z" fill="#EA986C"/>
<path d="M346.951 263.11L346.941 263.531L351.32 263.632L351.33 263.212L346.951 263.11Z" fill="#EA986C"/>
<path d="M387.803 373.645C385.529 373.425 387.952 370.051 387.337 368.148C388.276 371.606 383.903 372.862 383.903 372.862C378.46 364.761 379.944 361.646 378.343 357.689C376.587 353.331 374.864 351.298 374.864 351.298C374.864 350.54 374.65 346.901 378.227 348.5C376.639 344.356 382.432 341.397 382.432 341.397C383.818 341.792 382.814 341.72 383.073 342.264C380.974 339.836 381.058 336.631 382.432 337.058C387.337 338.58 389.818 341.526 389.818 341.526C389.818 341.526 392.702 345.638 393.11 345.794C393.285 345.858 393 354.536 393.985 354.555C395.637 354.588 393.57 356.453 393.875 354.963L394.127 349.64C394.127 349.64 394.218 342.349 397.289 343.307C400.05 344.168 398.384 350.119 398.384 350.119L399.272 361.381L396.79 368.588C395.637 371.936 392.002 374.06 388.075 373.678L387.803 373.645Z" fill="#FFB49E"/>
<path d="M406.354 154.982C404.942 155.345 414.285 152.728 415.639 165.88C416.048 169.863 424.989 164.307 427.387 161.684L423.395 141.797C423.395 141.797 415.639 152.599 406.354 154.982Z" fill="#EA8A6C"/>
<path d="M412.697 152.599C412.697 152.599 422.883 143.766 417.907 125.764C417.907 125.764 402.913 123.452 401.579 111.75C400.244 100.049 425.125 122.034 425.125 122.034L423.395 141.791C423.395 141.797 418.464 154.062 412.697 152.599Z" fill="#EA8A6C"/>
<path d="M401.579 105.391C404.469 123.763 435.59 122.63 431.819 137.88C431.819 137.88 442.419 114.58 438.013 103.429C433.601 92.2846 402.655 71.6726 401.579 105.391Z" fill="#5370BD"/>
<path d="M369.253 119.774C369.253 119.774 406.646 114.36 414.013 103.902C417.92 98.3588 420.48 93.8193 422.028 90.7758C423.201 88.4769 421.737 85.3362 418.989 84.2289C409.944 80.5766 392.015 76.1602 382.154 93.3337C371.78 111.401 369.253 119.774 369.253 119.774Z" fill="#607BBF"/>
<path d="M395.514 112.437C390.551 114.483 384.46 116.594 377.158 118.472L369.246 119.774C369.246 119.774 374.98 102.918 389.235 99.3689C397.199 97.3939 402.952 109.367 395.514 112.437Z" fill="#6685D4"/>
<path d="M429.363 141.182C425.955 144.012 422.061 143.034 420.655 139C419.255 134.966 420.881 129.397 424.283 126.567C427.691 123.737 431.585 124.715 432.991 128.749C434.397 132.783 432.771 138.352 429.363 141.182Z" fill="#EA8A6C"/>
<path d="M425.19 130.426C425.19 130.426 426.933 127.273 428.922 128.93C430.911 130.588 429.505 137.595 427.056 137.867C424.607 138.132 427.866 135.484 426.525 134.072C425.19 132.66 424.445 132.33 425.19 130.426Z" fill="#D47D62"/>
<path d="M384.46 97.4651C379.27 106.505 375.564 113.706 372.966 119.171C370.659 119.573 369.253 119.774 369.253 119.774C369.253 119.774 371.78 111.394 382.16 93.3336C388.879 81.6386 399.337 79.9614 408.182 81.2306C399.467 82.2344 390.732 86.5407 384.46 97.4651Z" fill="#6685D4"/>
<path d="M403.86 168.153C403.523 168.063 403.173 168.276 403.115 168.62C402.959 169.526 403.011 171.009 405.266 170.277C408.305 169.287 408.946 169.565 403.86 168.153Z" fill="#EA8A6C"/>
<path d="M416.994 265.359C416.994 265.359 419.851 274.989 426.713 275.604L427.963 271.984L417.499 264.071L416.994 265.359Z" fill="#EA8A6C"/>
<path d="M415.639 261.247C415.639 261.247 425.754 279.437 435.764 270.08C435.764 270.08 455.857 219.026 456.278 213.392C457.147 201.736 459.842 179.434 449.877 173.457C435.097 164.592 423.447 184.135 428.993 192.359C434.533 200.59 415.639 261.247 415.639 261.247Z" fill="#95C1F5"/>
<path d="M427.833 272.534C430.348 273.124 433.062 272.606 435.764 270.08C435.764 270.08 455.857 219.026 456.278 213.392C457.147 201.736 459.842 179.434 449.877 173.457C454.957 190.138 446.715 244.773 427.833 272.534Z" fill="#5A97DB"/>
<path d="M432.453 164.171C432.453 164.171 447.324 170.556 450.201 172.544C456.116 176.63 456.641 184.99 456.641 184.99L457.049 190.138C457.049 190.138 452.073 183.779 450.946 179.648C449.695 175.076 442.386 174.111 440.196 171.307C438.006 168.503 430.406 169.61 429.576 169.371C428.754 169.125 432.453 164.171 432.453 164.171Z" fill="#5A97DB"/>
<path d="M443.197 266.745C443.858 274.691 446.456 280.888 452.028 283.647C460.478 287.83 478.73 281.685 486.389 279.787C506.229 274.879 506.799 247.636 507.609 227.587C507.81 222.627 480.622 209.371 472.134 211.139C453.57 214.992 443.592 217.181 444.506 254.422C444.57 257.453 442.899 263.171 443.197 266.745Z" fill="#FFB49E"/>
<path d="M512.125 297.705L498.693 265.716C495.952 259.182 487.393 255.737 479.669 258.055L477.382 258.741C469.665 261.06 461.87 268.487 464.611 275.015L478.179 302.86C480.926 309.394 514.872 304.239 512.125 297.705Z" fill="#FFB49E"/>
<path d="M452.021 283.647C460.471 287.83 478.723 281.685 486.382 279.787C506.222 274.879 506.793 247.636 507.603 227.587C507.803 222.627 497.08 230.119 494.3 238.324C477.732 287.312 452.021 283.647 452.021 283.647Z" fill="#EA8A6C"/>
<path d="M437.896 256.928C436.102 258.521 438.654 260.574 440.799 261.914C441.823 262.555 443.054 263.171 444.194 263.054C445.406 262.931 446.08 262.044 446.469 261.163C447.499 258.819 450.311 254.021 446.754 251.974C445.289 251.132 447.052 243.834 446.592 244.948C444.058 251.055 440.229 254.856 437.896 256.928Z" fill="#FFB49E"/>
<path d="M437.534 258.994C437.534 258.994 440.475 262.659 443.359 263.074C443.359 263.074 445.652 262.691 444.648 260.755C443.637 258.826 442.199 263.112 437.534 258.994Z" fill="#EA8A6C"/>
<path d="M447.091 227.619C447.091 227.619 446.022 230.741 445.575 233.81C445.575 233.81 454.413 237.119 464.177 236.685C464.184 236.679 452.32 232.172 447.091 227.619Z" fill="#EA8A6C"/>
<path d="M401.268 387.497L397.276 391.978L399.842 382.375L401.268 387.497Z" fill="#EA8A6C"/>
<path d="M491.106 276.614C491.106 276.614 499.821 298.21 500.112 297.524C500.404 296.838 507.953 288.27 507.953 288.27L502.931 275.798L491.106 276.614Z" fill="#EA8A6C"/>
<path d="M493.743 207.124C475.957 203.238 459.914 195.137 449.845 204.482C439.776 213.826 437.514 225.69 459.531 234.296C461.274 234.976 462.83 235.766 464.229 236.653C464.482 237.987 464.909 239.509 465.564 241.399C466.834 245.052 467.909 248.782 468.642 252.583C469.076 254.843 469.788 257.019 470.754 257.045C472.51 257.083 473.974 255.646 474.013 253.852L474.726 252.848C479.657 267.891 475.134 284.34 488.968 286.107C506.417 288.335 511.069 271.518 511.069 271.518C532.335 224.064 512.56 211.236 493.743 207.124Z" fill="#344982"/>
<path d="M511.076 271.511C511.076 271.511 516.784 239.068 499.335 236.841C479.229 234.276 487.141 245.084 459.531 234.296C437.514 225.69 439.776 213.826 449.845 204.482C459.914 195.137 475.957 203.232 493.743 207.124C512.56 211.236 532.335 224.064 511.076 271.511Z" fill="#3D5CAD"/>
<path d="M449.281 204.482C452.605 201.393 456.59 200.221 461.06 200.156C452.047 210.077 450.253 221.668 465.965 231.317C468.492 232.871 467.494 236.743 464.527 236.841L458.968 234.289C436.95 225.69 439.212 213.826 449.281 204.482Z" fill="#6685D4"/>
<path d="M476.812 268.319C482.398 268.319 486.927 264.486 486.927 259.758C486.927 255.03 482.398 251.197 476.812 251.197C471.226 251.197 466.698 255.03 466.698 259.758C466.698 264.486 471.226 268.319 476.812 268.319Z" fill="#FFB49E"/>
<path d="M476.521 259.175C476.521 259.175 478.95 259.907 478.49 261.5C478.03 263.093 477.065 263.242 477.065 263.242C477.065 263.242 478.315 264.874 480.071 263.572C481.834 262.277 483.104 259.965 481.03 257.349C479.346 255.225 476.521 259.175 476.521 259.175Z" fill="#EA8A6C"/>
<path d="M465.091 309.621C493.95 304.764 514.581 318.984 517.115 283.336C517.115 283.336 509.417 281.885 506.987 285.466C502.724 291.754 498.907 298.042 486.894 297.971C480.674 297.932 472.717 297.686 470.903 300.276L465.091 309.621Z" fill="white"/>
<path d="M405.622 381.662C405.622 381.662 408.978 400.267 422.916 401.432C422.916 401.432 426.81 397.081 428.657 393.157L405.622 381.662Z" fill="#EA8A6C"/>
<path d="M472.27 342.277L437.883 389.673C425.501 401.711 395.32 380.756 404.644 370.168L439.231 322.688C445.225 315.941 454.873 313.849 461.54 317.851C468.492 322.021 477.551 334.617 472.27 342.277Z" fill="#3365DE"/>
<path d="M469.97 345.619L439.043 388.067C439.043 388.067 433.697 396.576 422.456 392.515C422.456 392.515 428.987 389.303 432.421 384.078C435.862 378.852 440.054 376.967 445.134 366.788C458.903 339.214 469.561 335.206 469.97 345.619Z" fill="#0F3CB8"/>
<path d="M340.659 229.245C339.208 227.218 339.195 222.18 340.951 220.412C342.648 218.702 349.996 203.957 352.043 200.706C356.08 194.296 366.097 171.236 369.869 162.992C372.318 157.624 374.125 152.722 382.516 152.722C385.205 152.722 385.257 150.138 382.575 149.944C375.817 149.445 366.979 157.494 363.868 164.3C360.104 172.544 354.046 193.421 350.009 199.832C347.961 203.077 342.084 215.316 340.387 217.025C338.631 218.793 334.614 222.627 336.065 224.653C337.853 227.147 340.244 230.598 343.652 233.247C342.493 231.822 341.508 230.43 340.659 229.245Z" fill="#B3D1F5"/>
<path d="M208.27 273.26L189.525 281.264L184.438 269.063L203.184 261.053L208.27 273.26Z" fill="#2A66F7"/>
<path d="M197.229 277.035L201.343 280.694L202.127 274.412L197.229 277.035Z" fill="#2A66F7"/>
<path d="M201.978 267.224L190.536 272.36L189.836 270.637L201.279 265.502L201.978 267.224Z" fill="white"/>
<path d="M203.559 270.825L192.123 275.954L191.423 274.231L202.86 269.102L203.559 270.825Z" fill="white"/>
<path opacity="0.4" d="M282.097 379.648L313.147 367.597C313.49 367.467 314.022 367.526 314.339 367.733L316.801 369.365C316.821 369.378 316.84 369.384 316.853 369.397L341.767 385.884C342.084 386.092 342.058 386.37 341.715 386.499L310.665 398.551C310.322 398.68 309.791 398.622 309.473 398.415L307.011 396.783C306.991 396.77 306.972 396.763 306.959 396.75L282.045 380.263C281.734 380.056 281.754 379.778 282.097 379.648Z" fill="#A8C4E5"/>
<path d="M329.968 388.986L334.51 389.342L335.054 386.869L330.512 386.519L329.968 388.986Z" fill="#3C61C7"/>
<path d="M276.881 384.622L281.423 384.971L281.968 382.504L277.426 382.148L276.881 384.622Z" fill="#363656"/>
<path d="M306.272 363.077C306.92 362.837 307.873 363.323 307.95 363.932L308.689 369.915L304.134 371.275V371.282L276.285 384.265L275.352 376.404C275.3 375.957 275.307 375.478 275.786 375.297L306.272 363.077Z" fill="#3C61C7"/>
<path d="M303.207 401.575L334.257 389.524C334.601 389.394 334.62 389.116 334.309 388.908L309.395 372.421C309.078 372.214 308.547 372.149 308.203 372.285L277.205 383.029C276.862 383.164 276.538 383.475 276.285 384.265L302.015 401.439C302.333 401.646 302.864 401.704 303.207 401.575Z" fill="#3C61C7"/>
<path d="M277.335 375.575L281.002 374.15V374.144L307.536 363.848C308.177 363.602 308.857 363.906 308.935 364.482L309.674 370.012C309.758 370.045 309.836 370.077 309.901 370.123L334.814 386.61C335.132 386.817 335.106 387.095 334.762 387.225L303.713 399.276C303.369 399.405 302.838 399.347 302.52 399.14L277.607 382.653C277.471 382.562 277.399 382.459 277.386 382.362H277.38L276.615 376.605C276.57 376.184 276.868 375.756 277.335 375.575Z" fill="#5F86F2"/>
<path d="M308.657 375.931L312.57 374.409C312.855 374.299 312.875 374.073 312.609 373.898L310.004 372.175C309.745 372 309.305 371.949 309.02 372.059L305.106 373.581C304.821 373.691 304.801 373.917 305.067 374.092L307.672 375.815C307.937 375.989 308.378 376.041 308.657 375.931Z" fill="#A6BDFF"/>
<path d="M300.687 379.02L304.6 377.498C304.886 377.388 304.905 377.162 304.639 376.987L302.035 375.264C301.775 375.089 301.335 375.038 301.05 375.148L297.136 376.669C296.851 376.779 296.838 377.006 297.097 377.181L299.702 378.904C299.961 379.085 300.408 379.13 300.687 379.02Z" fill="#A6BDFF"/>
<path d="M292.717 382.116L296.631 380.594C296.916 380.484 296.929 380.257 296.67 380.082L294.065 378.36C293.806 378.185 293.365 378.133 293.08 378.243L289.166 379.765C288.881 379.875 288.862 380.102 289.128 380.276L291.732 381.999C291.992 382.174 292.432 382.226 292.717 382.116Z" fill="#A6BDFF"/>
<path d="M284.748 385.211L288.661 383.689C288.946 383.579 288.966 383.352 288.7 383.177L286.095 381.455C285.836 381.28 285.395 381.228 285.11 381.338L281.197 382.86C280.912 382.97 280.892 383.197 281.158 383.372L283.763 385.094C284.022 385.269 284.462 385.321 284.748 385.211Z" fill="#A6BDFF"/>
<path d="M314.605 379.862L318.518 378.34C318.804 378.23 318.816 378.003 318.557 377.829L315.953 376.106C315.693 375.931 315.253 375.879 314.968 375.989L311.054 377.511C310.769 377.621 310.756 377.848 311.015 378.023L313.62 379.745C313.879 379.92 314.32 379.972 314.605 379.862Z" fill="#A6BDFF"/>
<path d="M306.635 382.957L310.549 381.436C310.834 381.325 310.847 381.099 310.588 380.924L307.983 379.201C307.724 379.027 307.283 378.975 306.998 379.085L303.084 380.607C302.799 380.717 302.78 380.943 303.046 381.118L305.65 382.841C305.909 383.016 306.35 383.067 306.635 382.957Z" fill="#A6BDFF"/>
<path d="M298.659 386.053L302.572 384.531C302.857 384.421 302.877 384.194 302.611 384.019L300.006 382.297C299.747 382.122 299.306 382.07 299.021 382.18L295.108 383.702C294.823 383.812 294.81 384.039 295.069 384.214L297.674 385.936C297.939 386.111 298.38 386.163 298.659 386.053Z" fill="#A6BDFF"/>
<path d="M290.689 389.142L294.602 387.62C294.887 387.51 294.907 387.283 294.641 387.108L292.037 385.386C291.777 385.211 291.337 385.159 291.052 385.269L287.138 386.791C286.853 386.901 286.84 387.128 287.099 387.302L289.704 389.025C289.97 389.2 290.41 389.252 290.689 389.142Z" fill="#A6BDFF"/>
<path d="M296.676 393.092L300.59 391.57C300.875 391.46 300.894 391.233 300.629 391.058L298.024 389.336C297.765 389.161 297.324 389.109 297.039 389.219L293.125 390.741C292.84 390.851 292.821 391.078 293.087 391.253L295.691 392.975C295.951 393.156 296.391 393.202 296.676 393.092Z" fill="#A6BDFF"/>
<path d="M312.577 386.888L316.49 385.366C316.775 385.256 316.795 385.029 316.529 384.855L313.924 383.132C313.665 382.957 313.224 382.905 312.939 383.016L309.026 384.537C308.741 384.647 308.728 384.874 308.987 385.049L311.592 386.771C311.851 386.946 312.291 386.998 312.577 386.888Z" fill="#A6BDFF"/>
<path d="M304.607 389.983L308.521 388.462C308.806 388.352 308.819 388.125 308.559 387.95L305.955 386.228C305.695 386.053 305.255 386.001 304.97 386.111L301.056 387.633C300.771 387.743 300.752 387.97 301.017 388.144L303.622 389.867C303.881 390.042 304.322 390.093 304.607 389.983Z" fill="#A6BDFF"/>
<path d="M302.618 397.029L306.531 395.507C306.816 395.397 306.836 395.17 306.57 394.996L303.965 393.273C303.706 393.098 303.265 393.046 302.98 393.157L299.067 394.678C298.782 394.788 298.769 395.015 299.028 395.19L301.633 396.912C301.898 397.087 302.339 397.139 302.618 397.029Z" fill="#A6BDFF"/>
<path d="M318.519 390.825L322.432 389.303C322.717 389.193 322.73 388.967 322.471 388.792L319.866 387.069C319.607 386.895 319.166 386.843 318.881 386.953L314.968 388.475C314.683 388.585 314.663 388.811 314.929 388.986L317.534 390.709C317.793 390.884 318.24 390.935 318.519 390.825Z" fill="#A6BDFF"/>
<path d="M310.549 393.914L314.462 392.392C314.748 392.282 314.767 392.056 314.501 391.881L311.897 390.158C311.637 389.983 311.197 389.932 310.912 390.042L306.998 391.563C306.713 391.674 306.693 391.9 306.959 392.075L309.564 393.798C309.823 393.972 310.264 394.024 310.549 393.914Z" fill="#A6BDFF"/>
<path d="M329.702 385.347L323.611 381.319L321.363 379.83C321.104 379.655 320.663 379.603 320.378 379.713L316.464 381.235C316.179 381.345 316.166 381.572 316.425 381.746L319.03 383.469L324.764 387.264C325.14 387.516 325.782 387.587 326.19 387.426L329.644 386.085C330.052 385.93 330.078 385.593 329.702 385.347Z" fill="#FF4DF6"/>
<path d="M279.162 376.087L281.488 375.187V375.18L299.832 368.07V368.083L306.687 365.428C306.959 365.324 307.251 365.454 307.289 365.7L307.749 369.19C307.775 369.371 307.646 369.553 307.445 369.637L304.84 370.647V370.654L286.497 377.764V377.751L280.076 380.238C279.577 380.432 279.052 380.192 278.987 379.739L278.611 376.896C278.566 376.566 278.793 376.229 279.162 376.087Z" fill="#8CAAFF"/>
<defs>
<linearGradient id="paint0_linear_56_365" x1="305.181" y1="129.59" x2="274.498" y2="49.9285" gradientUnits="userSpaceOnUse">
<stop offset="0.1123" stop-color="#4183D6"/>
<stop offset="0.2937" stop-color="#568FDC"/>
<stop offset="0.5445" stop-color="#6C9CE3"/>
<stop offset="0.7845" stop-color="#79A4E7"/>
<stop offset="1" stop-color="#7EA7E8"/>
</linearGradient>
<linearGradient id="paint1_linear_56_365" x1="88.4029" y1="358.832" x2="498.565" y2="358.832" gradientUnits="userSpaceOnUse">
<stop offset="0.0676" stop-color="#A8C4E5"/>
<stop offset="0.0685" stop-color="#A8C4E5"/>
<stop offset="0.1354" stop-color="#8DB7E9"/>
<stop offset="0.2114" stop-color="#77ACEC"/>
<stop offset="0.3011" stop-color="#66A4EF"/>
<stop offset="0.4121" stop-color="#5B9EF1"/>
<stop offset="0.5677" stop-color="#549BF2"/>
<stop offset="1" stop-color="#529AF2"/>
</linearGradient>
</defs>
</svg>
